<?xml version="1.0" encoding="UTF-8"?>
<svg width="56px" height="51px" viewBox="0 0 56 51" version="1.1" xmlns="http://www.w3.org/2000/svg" xmlns:xlink="http://www.w3.org/1999/xlink">
    <title>1</title>
    <defs>
        <path d="M33.0933167,4.00299411 C32.8490184,4.53237375 32.3379341,4.89098577 31.7455873,4.89098577 L31.7455873,4.89098577 L24.6757573,4.89098577 C24.0874992,4.89098577 23.5339949,4.57657243 23.2840746,4.05321988 L23.2840746,4.05321988 C22.1244242,1.62530601 19.4856956,0.0150677319 16.5081182,0.34505106 L16.5081182,0.34505106 C13.471766,0.682568255 11.0144724,3.11801599 10.6889116,6.10343593 L10.6889116,6.10343593 C10.5084989,7.7613887 10.9659194,9.3048267 11.8449845,10.5383717 L11.8449845,10.5383717 C12.181789,11.0114985 12.181789,11.6418319 11.8879155,12.1415784 L11.8879155,12.1415784 L7.95256597,18.840692 C7.66789198,19.3258729 7.12307605,19.5830289 6.55423916,19.5528934 L6.55423916,19.5528934 C6.08813022,19.5277805 5.60873309,19.5544002 5.12115861,19.6362682 L5.12115861,19.6362682 C2.44154331,20.0857889 0.341497673,22.2942161 0.0399579001,24.9491505 L0.0399579001,24.9491505 C-0.378620191,28.6362245 2.54682669,31.7587608 6.21487914,31.7587608 L6.21487914,31.7587608 C6.34520565,31.7587608 6.47451,31.7547427 6.60279217,31.7467066 L6.60279217,31.7467066 C7.16345171,31.7130553 7.68935752,32.0134054 7.96994283,32.4915548 L7.96994283,32.4915548 L11.8879155,39.1610352 C12.181789,39.6612839 12.181789,40.2916173 11.8449845,40.7642419 L11.8449845,40.7642419 C10.9659194,41.9982891 10.5084989,43.5412249 10.6889116,45.1986754 L10.6889116,45.1986754 C11.0144724,48.1845976 13.471766,50.6200453 16.5081182,50.9570602 L16.5081182,50.9570602 C19.4856956,51.2875458 22.1244242,49.6778098 23.2840746,47.2498959 L23.2840746,47.2498959 C23.5339949,46.7265434 24.0895436,46.4116278 24.6772906,46.4116278 L24.6772906,46.4116278 L33.0938278,46.4116278 C33.6514209,46.4116278 34.1389953,46.7300592 34.409359,47.2092131 L34.409359,47.2092131 C35.4918356,49.1263308 37.6762102,50.358369 40.1263486,50.0655528 L40.1263486,50.0655528 C42.6838148,49.7596778 44.7613727,47.7285475 45.084378,45.2167566 L45.084378,45.2167566 C45.2581467,43.8656833 44.9422965,42.5959758 44.2891307,41.5507775 L44.2891307,41.5507775 C43.9983237,41.0851846 44.0187671,40.4915159 44.2973081,40.0178869 L44.2973081,40.0178869 L49.2006514,31.6713679 C49.4321726,31.2770956 49.8635278,31.0375187 50.3265703,31.0465593 L50.3265703,31.0465593 C50.7017062,31.0540932 51.0957522,31.0495729 51.2317007,31.0314916 L51.2317007,31.0314916 C53.9884897,30.6598209 56.0972238,28.2901689 55.9965402,25.456933 L55.9965402,25.456933 C55.8912568,22.500644 53.2883041,20.2183849 50.2785284,20.2208962 L50.2785284,20.2208962 C49.8267298,20.2213985 49.4086628,19.9843328 49.1822524,19.5996034 L49.1822524,19.5996034 L44.938719,12.376635 C44.64229,11.8723682 44.7020869,11.254089 45.0475799,10.7809622 L45.0475799,10.7809622 C46.0370392,9.42787985 46.5363687,7.70664261 46.2803154,5.86235222 L46.2803154,5.86235222 C45.8576486,2.82419521 43.3303365,0.396281349 40.2306098,0.0462077111 L40.2306098,0.0462077111 C39.9536021,0.0150677319 39.6791498,0 39.4087862,0 L39.4087862,0 C36.5998665,0 34.1834597,1.64238278 33.0933167,4.00299411 M25.654995,17.2219153 L22.7142155,12.2159125 C22.3983654,11.6774922 22.3932546,10.998942 22.7515247,10.4871414 L22.7515247,10.4871414 C22.9370483,10.2219493 23.1031507,9.94319628 23.2477876,9.65188679 L23.2477876,9.65188679 C23.5309284,9.08182427 24.1457628,8.74330256 24.7912624,8.74330256 L24.7912624,8.74330256 L31.598395,8.74330256 C32.2357172,8.74330256 32.8393078,9.0873491 33.1055828,9.65741163 L33.1055828,9.65741163 C34.2008365,12.0039597 36.6095771,13.6347906 39.4092973,13.6347906 L39.4092973,13.6347906 C39.6070869,13.6347906 39.8033433,13.62575 39.9970443,13.6086732 L39.9970443,13.6086732 C40.6548098,13.5504113 41.2865101,13.8648246 41.6166706,14.4273533 L41.6166706,14.4273533 L45.6670142,21.3208406 C45.9608877,21.8215916 45.9787756,22.4423821 45.684391,22.9431331 L45.684391,22.9431331 C45.2162378,23.7402161 44.9479185,24.6648726 44.9479185,25.6513068 L44.9479185,25.6513068 C44.9479185,26.637741 45.2162378,27.5623974 45.684391,28.3599827 L45.684391,28.3599827 C45.9787756,28.8602314 45.9608877,29.481022 45.6670142,29.9817729 L45.6670142,29.9817729 L40.9359062,38.0344711 C40.6246559,38.5638507 40.0420197,38.8631964 39.4195189,38.8616896 L39.4195189,38.8616896 L39.4092973,38.8616896 C37.2591654,38.8616896 35.3906409,40.0294388 34.4139587,41.7536896 L34.4139587,41.7536896 C34.1262182,42.2619744 33.56147,42.5588087 32.9686122,42.5588087 L32.9686122,42.5588087 L24.75242,42.5588087 C24.1217419,42.5588087 23.528884,42.2207893 23.2554539,41.6622787 L23.2554539,41.6622787 C22.1852432,39.4779598 19.9114289,37.9701821 17.2793445,37.9701821 L17.2793445,37.9701821 C17.1111977,37.9701821 16.9445842,37.9772137 16.779504,37.9897702 L16.779504,37.9897702 C16.1478037,38.0384892 15.5518793,37.6919313 15.235007,37.1530088 L15.235007,37.1530088 L11.4126071,30.6462599 C11.10289,30.1193915 11.1018678,29.4624384 11.4381613,28.9511401 L11.4381613,28.9511401 C12.0637286,27.9993617 12.4291539,26.8682773 12.4291539,25.6513068 L12.4291539,25.6513068 C12.4291539,24.433834 12.0637286,23.3027496 11.4381613,22.3519757 L11.4381613,22.3519757 C11.1018678,21.8406774 11.10289,21.1827198 11.4126071,20.6563537 L11.4126071,20.6563537 L15.235007,14.1496048 C15.5518793,13.61018 16.1478037,13.2636221 16.779504,13.3123411 L16.779504,13.3123411 C16.9445842,13.3253998 17.1111977,13.3324314 17.2793445,13.3324314 L17.2793445,13.3324314 C17.4480023,13.3324314 17.6146158,13.3253998 17.779185,13.3128434 L17.779185,13.3128434 C18.4108852,13.2636221 19.0068096,13.61018 19.3236819,14.1491025 L19.3236819,14.1491025 L22.2603726,19.1475714 C22.5987105,19.723661 22.5562905,20.4449031 22.1433343,20.9722738 L22.1433343,20.9722738 C21.0363256,22.3861293 20.4174024,24.18823 20.5395516,26.1364877 L20.5395516,26.1364877 C20.7751615,29.9024162 23.8667108,33.0068712 27.6942216,33.3102349 L27.6942216,33.3102349 C32.45855,33.6889372 36.4189427,29.8662536 36.1521566,25.2063064 L36.1521566,25.2063064 C35.9722549,22.0687024 33.7699924,19.3514881 30.7372178,18.3545065 L30.7372178,18.3545065 C29.5433248,17.9622432 28.3964515,17.8904203 27.3185745,18.0360751 L27.3185745,18.0360751 C27.2449784,18.045618 27.1713823,18.0506405 27.0988083,18.0506405 L27.0988083,18.0506405 C26.5085058,18.0506405 25.9560236,17.7337159 25.654995,17.2219153" id="path-1"></path>
    </defs>
    <g id="Page-1" stroke="none" stroke-width="1" fill="none" fill-rule="evenodd">
        <g id="Ecommerce_science_desktop" transform="translate(-342.000000, -1518.000000)">
            <g id="1" transform="translate(342.000000, 1518.000000)">
                <mask id="mask-2" fill="white">
                    <use xlink:href="#path-1"></use>
                </mask>
                <g id="Clip-11"></g>
                <path d="M33.0933167,4.00299411 C32.8490184,4.53237375 32.3379341,4.89098577 31.7455873,4.89098577 L31.7455873,4.89098577 L24.6757573,4.89098577 C24.0874992,4.89098577 23.5339949,4.57657243 23.2840746,4.05321988 L23.2840746,4.05321988 C22.1244242,1.62530601 19.4856956,0.0150677319 16.5081182,0.34505106 L16.5081182,0.34505106 C13.471766,0.682568255 11.0144724,3.11801599 10.6889116,6.10343593 L10.6889116,6.10343593 C10.5084989,7.7613887 10.9659194,9.3048267 11.8449845,10.5383717 L11.8449845,10.5383717 C12.181789,11.0114985 12.181789,11.6418319 11.8879155,12.1415784 L11.8879155,12.1415784 L7.95256597,18.840692 C7.66789198,19.3258729 7.12307605,19.5830289 6.55423916,19.5528934 L6.55423916,19.5528934 C6.08813022,19.5277805 5.60873309,19.5544002 5.12115861,19.6362682 L5.12115861,19.6362682 C2.44154331,20.0857889 0.341497673,22.2942161 0.0399579001,24.9491505 L0.0399579001,24.9491505 C-0.378620191,28.6362245 2.54682669,31.7587608 6.21487914,31.7587608 L6.21487914,31.7587608 C6.34520565,31.7587608 6.47451,31.7547427 6.60279217,31.7467066 L6.60279217,31.7467066 C7.16345171,31.7130553 7.68935752,32.0134054 7.96994283,32.4915548 L7.96994283,32.4915548 L11.8879155,39.1610352 C12.181789,39.6612839 12.181789,40.2916173 11.8449845,40.7642419 L11.8449845,40.7642419 C10.9659194,41.9982891 10.5084989,43.5412249 10.6889116,45.1986754 L10.6889116,45.1986754 C11.0144724,48.1845976 13.471766,50.6200453 16.5081182,50.9570602 L16.5081182,50.9570602 C19.4856956,51.2875458 22.1244242,49.6778098 23.2840746,47.2498959 L23.2840746,47.2498959 C23.5339949,46.7265434 24.0895436,46.4116278 24.6772906,46.4116278 L24.6772906,46.4116278 L33.0938278,46.4116278 C33.6514209,46.4116278 34.1389953,46.7300592 34.409359,47.2092131 L34.409359,47.2092131 C35.4918356,49.1263308 37.6762102,50.358369 40.1263486,50.0655528 L40.1263486,50.0655528 C42.6838148,49.7596778 44.7613727,47.7285475 45.084378,45.2167566 L45.084378,45.2167566 C45.2581467,43.8656833 44.9422965,42.5959758 44.2891307,41.5507775 L44.2891307,41.5507775 C43.9983237,41.0851846 44.0187671,40.4915159 44.2973081,40.0178869 L44.2973081,40.0178869 L49.2006514,31.6713679 C49.4321726,31.2770956 49.8635278,31.0375187 50.3265703,31.0465593 L50.3265703,31.0465593 C50.7017062,31.0540932 51.0957522,31.0495729 51.2317007,31.0314916 L51.2317007,31.0314916 C53.9884897,30.6598209 56.0972238,28.2901689 55.9965402,25.456933 L55.9965402,25.456933 C55.8912568,22.500644 53.2883041,20.2183849 50.2785284,20.2208962 L50.2785284,20.2208962 C49.8267298,20.2213985 49.4086628,19.9843328 49.1822524,19.5996034 L49.1822524,19.5996034 L44.938719,12.376635 C44.64229,11.8723682 44.7020869,11.254089 45.0475799,10.7809622 L45.0475799,10.7809622 C46.0370392,9.42787985 46.5363687,7.70664261 46.2803154,5.86235222 L46.2803154,5.86235222 C45.8576486,2.82419521 43.3303365,0.396281349 40.2306098,0.0462077111 L40.2306098,0.0462077111 C39.9536021,0.0150677319 39.6791498,0 39.4087862,0 L39.4087862,0 C36.5998665,0 34.1834597,1.64238278 33.0933167,4.00299411 M25.654995,17.2219153 L22.7142155,12.2159125 C22.3983654,11.6774922 22.3932546,10.998942 22.7515247,10.4871414 L22.7515247,10.4871414 C22.9370483,10.2219493 23.1031507,9.94319628 23.2477876,9.65188679 L23.2477876,9.65188679 C23.5309284,9.08182427 24.1457628,8.74330256 24.7912624,8.74330256 L24.7912624,8.74330256 L31.598395,8.74330256 C32.2357172,8.74330256 32.8393078,9.0873491 33.1055828,9.65741163 L33.1055828,9.65741163 C34.2008365,12.0039597 36.6095771,13.6347906 39.4092973,13.6347906 L39.4092973,13.6347906 C39.6070869,13.6347906 39.8033433,13.62575 39.9970443,13.6086732 L39.9970443,13.6086732 C40.6548098,13.5504113 41.2865101,13.8648246 41.6166706,14.4273533 L41.6166706,14.4273533 L45.6670142,21.3208406 C45.9608877,21.8215916 45.9787756,22.4423821 45.684391,22.9431331 L45.684391,22.9431331 C45.2162378,23.7402161 44.9479185,24.6648726 44.9479185,25.6513068 L44.9479185,25.6513068 C44.9479185,26.637741 45.2162378,27.5623974 45.684391,28.3599827 L45.684391,28.3599827 C45.9787756,28.8602314 45.9608877,29.481022 45.6670142,29.9817729 L45.6670142,29.9817729 L40.9359062,38.0344711 C40.6246559,38.5638507 40.0420197,38.8631964 39.4195189,38.8616896 L39.4195189,38.8616896 L39.4092973,38.8616896 C37.2591654,38.8616896 35.3906409,40.0294388 34.4139587,41.7536896 L34.4139587,41.7536896 C34.1262182,42.2619744 33.56147,42.5588087 32.9686122,42.5588087 L32.9686122,42.5588087 L24.75242,42.5588087 C24.1217419,42.5588087 23.528884,42.2207893 23.2554539,41.6622787 L23.2554539,41.6622787 C22.1852432,39.4779598 19.9114289,37.9701821 17.2793445,37.9701821 L17.2793445,37.9701821 C17.1111977,37.9701821 16.9445842,37.9772137 16.779504,37.9897702 L16.779504,37.9897702 C16.1478037,38.0384892 15.5518793,37.6919313 15.235007,37.1530088 L15.235007,37.1530088 L11.4126071,30.6462599 C11.10289,30.1193915 11.1018678,29.4624384 11.4381613,28.9511401 L11.4381613,28.9511401 C12.0637286,27.9993617 12.4291539,26.8682773 12.4291539,25.6513068 L12.4291539,25.6513068 C12.4291539,24.433834 12.0637286,23.3027496 11.4381613,22.3519757 L11.4381613,22.3519757 C11.1018678,21.8406774 11.10289,21.1827198 11.4126071,20.6563537 L11.4126071,20.6563537 L15.235007,14.1496048 C15.5518793,13.61018 16.1478037,13.2636221 16.779504,13.3123411 L16.779504,13.3123411 C16.9445842,13.3253998 17.1111977,13.3324314 17.2793445,13.3324314 L17.2793445,13.3324314 C17.4480023,13.3324314 17.6146158,13.3253998 17.779185,13.3128434 L17.779185,13.3128434 C18.4108852,13.2636221 19.0068096,13.61018 19.3236819,14.1491025 L19.3236819,14.1491025 L22.2603726,19.1475714 C22.5987105,19.723661 22.5562905,20.4449031 22.1433343,20.9722738 L22.1433343,20.9722738 C21.0363256,22.3861293 20.4174024,24.18823 20.5395516,26.1364877 L20.5395516,26.1364877 C20.7751615,29.9024162 23.8667108,33.0068712 27.6942216,33.3102349 L27.6942216,33.3102349 C32.45855,33.6889372 36.4189427,29.8662536 36.1521566,25.2063064 L36.1521566,25.2063064 C35.9722549,22.0687024 33.7699924,19.3514881 30.7372178,18.3545065 L30.7372178,18.3545065 C29.5433248,17.9622432 28.3964515,17.8904203 27.3185745,18.0360751 L27.3185745,18.0360751 C27.2449784,18.045618 27.1713823,18.0506405 27.0988083,18.0506405 L27.0988083,18.0506405 C26.5085058,18.0506405 25.9560236,17.7337159 25.654995,17.2219153" id="Fill-10" fill="#FFFFFF" mask="url(#mask-2)"></path>
            </g>
        </g>
    </g>
</svg>