<?xml version="1.0" encoding="UTF-8"?>
<svg width="55px" height="59px" viewBox="0 0 55 59" version="1.1" xmlns="http://www.w3.org/2000/svg" xmlns:xlink="http://www.w3.org/1999/xlink">
    <title>2</title>
    <defs>
        <path d="M45.2058942,0.0699938428 C41.4333824,0.536803172 38.3557775,3.4820559 37.7693275,7.18511597 L37.7693275,7.18511597 C37.4802954,9.00771155 37.7838629,10.7366146 38.5123133,12.2268772 L38.5123133,12.2268772 C38.9785662,13.1825411 38.7935186,14.3255902 38.1142652,15.1478801 L38.1142652,15.1478801 L33.9733353,20.1620847 C33.4193105,20.832813 32.5768127,21.1667994 31.6996534,21.1645949 L31.6996534,21.1645949 L31.686236,21.1645949 C30.7498167,21.1645949 29.8726574,21.4109512 29.1151362,21.8402835 L29.1151362,21.8402835 C28.5057648,22.1852925 27.7689286,22.2326899 27.1276911,21.9494077 L27.1276911,21.9494077 L20.0589834,18.8250369 C19.2427612,18.464045 18.744083,17.6483688 18.7787445,16.7665566 L18.7787445,16.7665566 C18.8251462,15.5744567 18.6305946,14.3211811 18.078247,13.0221616 L18.078247,13.0221616 C16.638118,9.63765613 13.350867,7.26062114 9.62755214,7.17078652 L9.62755214,7.17078652 C4.044257,7.03575903 -0.469563451,11.7060569 0.0391777696,17.2840701 L0.0391777696,17.2840701 C0.436107733,21.6418757 3.99785533,25.1955789 8.41328188,25.6375872 L8.41328188,25.6375872 C11.3332329,25.9302387 14.0071991,24.8974161 15.9102267,23.0819853 L15.9102267,23.0819853 C16.5441965,22.4768417 17.4912379,22.3219734 18.2962789,22.6780051 L18.2962789,22.6780051 L25.369459,25.8045804 C26.0017517,26.0834535 26.4646503,26.6434043 26.6038553,27.3124793 L26.6038553,27.3124793 C26.9359348,28.9085593 28.0221811,30.2323799 29.4790818,30.9086196 L29.4790818,30.9086196 C30.5384935,31.3996788 31.3837866,32.2478719 31.7427007,33.3468303 L31.7427007,33.3468303 L33.8039412,39.6528898 C33.9755715,40.1786703 33.7782246,40.7485414 33.3225938,41.0693006 L33.3225938,41.0693006 C30.6380055,42.9607878 28.93512,46.1176754 29.1302307,49.6614582 L29.1302307,49.6614582 C29.4064045,54.6624356 33.5903817,58.7551464 38.6649356,58.9888266 L38.6649356,58.9888266 C44.4248926,59.2550237 49.1796663,54.7302249 49.1796663,49.1108767 L49.1796663,49.1108767 C49.1796663,43.6486013 44.687649,39.2213529 39.1474012,39.2213529 L39.1474012,39.2213529 L39.1378973,39.2213529 C38.5676599,39.2219041 38.0561233,38.8790996 37.8811387,38.3439498 L37.8811387,38.3439498 L35.8238116,32.0483619 C35.4637793,30.9460966 35.6510632,29.7677751 36.2229778,28.7564467 L36.2229778,28.7564467 C36.6377976,28.0234403 36.8748374,27.1791052 36.8748374,26.2796567 L36.8748374,26.2796567 C36.8748374,25.8740231 36.8256405,25.4805144 36.7339552,25.1024375 L36.7339552,25.1024375 C36.5399627,24.302744 36.7792388,23.4600623 37.3064289,22.8224018 L37.3064289,22.8224018 L41.4658076,17.7856008 C42.1355571,16.9743336 43.2184491,16.5852339 44.2476717,16.8398572 L44.2476717,16.8398572 C45.4160994,17.1286507 46.6773303,17.183764 47.9860811,16.9374077 L47.9860811,16.9374077 C51.6613171,16.2457363 54.5214491,13.2106489 54.9424185,9.54506585 L54.9424185,9.54506585 C55.5366953,4.37819754 51.4522301,0 46.3312745,0 L46.3312745,0 C45.9606202,0 45.5860525,0.0225964374 45.2058942,0.0699938428" id="path-1"></path>
    </defs>
    <g id="Page-1" stroke="none" stroke-width="1" fill="none" fill-rule="evenodd">
        <g id="Ecommerce_science_desktop" transform="translate(-721.000000, -1514.000000)">
            <g id="2" transform="translate(721.000000, 1514.000000)">
                <mask id="mask-2" fill="white">
                    <use xlink:href="#path-1"></use>
                </mask>
                <g id="Clip-23"></g>
                <path d="M37.7693275,7.18511597 C37.4802954,9.00771155 37.7838629,10.7366146 38.5123133,12.2268772 C38.9785662,13.1825411 38.7935186,14.3255902 38.1142652,15.1478801 L33.9733353,20.1620847 C33.4193105,20.832813 32.5768127,21.1667994 31.6996534,21.1645949 L31.686236,21.1645949 C30.7498167,21.1645949 29.8726574,21.4109512 29.1151362,21.8402835 C28.5057648,22.1852925 27.7689286,22.2326899 27.1276911,21.9494077 L20.0589834,18.8250369 C19.2427612,18.464045 18.744083,17.6483688 18.7787445,16.7665566 C18.8251462,15.5744567 18.6305946,14.3211811 18.078247,13.0221616 C16.638118,9.63765613 13.350867,7.26062114 9.62755214,7.17078652 C4.044257,7.03575903 -0.469563451,11.7060569 0.0391777696,17.2840701 C0.436107733,21.6418757 3.99785533,25.1955789 8.41328188,25.6375872 C11.3332329,25.9302387 14.0071991,24.8974161 15.9102267,23.0819853 C16.5441965,22.4768417 17.4912379,22.3219734 18.2962789,22.6780051 L25.369459,25.8045804 C26.0017517,26.0834535 26.4646503,26.6434043 26.6038553,27.3124793 C26.9359348,28.9085593 28.0221811,30.2323799 29.4790818,30.9086196 C30.5384935,31.3996788 31.3837866,32.2478719 31.7427007,33.3468303 L33.8039412,39.6528898 C33.9755715,40.1786703 33.7782246,40.7485414 33.3225938,41.0693006 C30.6380055,42.9607878 28.93512,46.1176754 29.1302307,49.6614582 C29.4064045,54.6624356 33.5903817,58.7551464 38.6649356,58.9888266 C44.4248926,59.2550237 49.1796663,54.7302249 49.1796663,49.1108767 C49.1796663,43.6486013 44.687649,39.2213529 39.1474012,39.2213529 L39.1378973,39.2213529 C38.5676599,39.2219041 38.0561233,38.8790996 37.8811387,38.3439498 L35.8238116,32.0483619 C35.4637793,30.9460966 35.6510632,29.7677751 36.2229778,28.7564467 C36.6377976,28.0234403 36.8748374,27.1791052 36.8748374,26.2796567 C36.8748374,25.8740231 36.8256405,25.4805144 36.7339552,25.1024375 C36.5399627,24.302744 36.7792388,23.4600623 37.3064289,22.8224018 L41.4658076,17.7856008 C42.1355571,16.9743336 43.2184491,16.5852339 44.2476717,16.8398572 C45.4160994,17.1286507 46.6773303,17.183764 47.9860811,16.9374077 C51.6613171,16.2457363 54.5214491,13.2106489 54.9424185,9.54506585 C55.5366953,4.37819754 51.4522301,0 46.3312745,0 C45.9606202,0 45.5860525,0.0225964374 45.2058942,0.0699938428 C41.4333824,0.536803172 38.3557775,3.4820559 37.7693275,7.18511597 Z" id="Fill-22" fill="#FFFFFF" mask="url(#mask-2)"></path>
            </g>
        </g>
    </g>
</svg>