<?xml version="1.0" encoding="UTF-8"?>
<svg width="59px" height="65px" viewBox="0 0 59 65" version="1.1" xmlns="http://www.w3.org/2000/svg" xmlns:xlink="http://www.w3.org/1999/xlink">
    <title>3</title>
    <defs>
        <path d="M33.0630202,0.293184854 C29.9607934,1.20315931 28.0041757,3.86752256 27.8066019,6.76895121 L27.8066019,6.76895121 C27.7402129,7.73976545 27.1878561,8.61250176 26.2902763,9.0163521 L26.2902763,9.0163521 L11.0802826,15.8508634 C10.3122943,16.1959719 9.43542786,16.097894 8.71683294,15.6615258 L8.71683294,15.6615258 C6.9992158,14.6188577 4.75367304,14.4877374 2.81298874,15.6054063 L2.81298874,15.6054063 C0.631179462,16.8625872 -0.463974076,19.482894 0.186107365,21.892884 L0.186107365,21.892884 C0.758646412,24.012836 2.40987452,25.4687952 4.33940546,25.9439749 L4.33940546,25.9439749 C5.19555847,26.1548163 5.86635329,26.8146133 6.16536951,27.6349015 L6.16536951,27.6349015 L12.4787013,44.9779133 C12.8425132,45.976525 12.515348,47.0679699 11.7128374,47.7723478 L11.7128374,47.7723478 C8.39444778,50.6805947 7.2844231,55.5755754 9.51775027,59.7614579 L9.51775027,59.7614579 C11.7452352,63.9363263 16.8109842,65.9802286 21.3615543,64.5415774 L21.3615543,64.5415774 C25.9317755,63.0961079 28.6133615,58.8215881 28.2968186,54.4421721 L28.2968186,54.4421721 C28.2198073,53.3821961 28.7599485,52.3730947 29.7276351,51.9078801 L29.7276351,51.9078801 L45.2233672,44.4686423 C46.0630557,44.0653164 47.0748246,44.1083238 47.8327219,44.6474903 L47.8327219,44.6474903 C49.9874444,46.1800236 52.9579554,46.4732085 55.5110122,45.0141025 L55.5110122,45.0141025 C58.3120984,43.4133866 59.6499703,40.0184214 58.6923748,36.9659422 L58.6923748,36.9659422 C57.7554927,33.9774497 55.046289,32.123934 52.1453536,32.043164 L52.1453536,32.043164 C51.1760737,32.0153665 50.283274,31.5192075 49.8334218,30.6711218 L49.8334218,30.6711218 L41.022269,14.0403552 C40.577728,13.2022346 40.6005658,12.1747764 41.1481426,11.3980201 L41.1481426,11.3980201 C42.715455,9.17736775 42.9895089,6.14796576 41.443441,3.54811366 L41.443441,3.54811366 C40.1177848,1.31802064 37.6528926,0 35.1088648,0 L35.1088648,0 C34.4258544,0 33.7370017,0.0949310529 33.0630202,0.293184854 M22.7929019,25.0644204 L12.2412941,20.8848316 C11.7351441,20.6844799 11.7197418,19.9821999 12.2158007,19.75982 L12.2158007,19.75982 L29.3006208,12.0829922 C29.4493322,12.0158587 29.6214126,12.0551948 29.731884,12.173203 L29.731884,12.173203 C30.0563936,12.5198849 30.4127699,12.831951 30.7935774,13.1062546 L30.7935774,13.1062546 C30.9247622,13.2001367 30.9815912,13.3622013 30.9316666,13.5137763 L30.9316666,13.5137763 L27.9361933,22.6386959 C27.8830821,22.8007606 27.7333084,22.9082792 27.561228,22.9171953 L27.561228,22.9171953 C26.8436953,22.9544335 26.1203204,23.1102043 25.4192522,23.4002423 L25.4192522,23.4002423 C24.5285769,23.7689524 23.7696174,24.315986 23.1593694,24.977881 L23.1593694,24.977881 C23.0945737,25.0486859 23.0048157,25.0874975 22.9129333,25.0874975 L22.9129333,25.0874975 C22.8725688,25.0874975 22.8322042,25.0801548 22.7929019,25.0644204 M46.1156358,34.4636436 L34.665386,29.8230361 C34.4550655,29.7370212 34.3281297,29.5319491 34.3302541,29.3074713 L34.3302541,29.3074713 C34.3392831,28.4714486 34.183136,27.621265 33.8352575,26.8020258 L33.8352575,26.8020258 C33.421521,25.8280646 32.7884352,25.0145947 32.0193846,24.3841686 L32.0193846,24.3841686 C31.8441175,24.2404608 31.7681685,24.0123116 31.8382753,23.7977989 L31.8382753,23.7977989 L34.7678907,14.8737554 C34.8411842,14.649802 35.0525669,14.5055698 35.2905052,14.5008494 L35.2905052,14.5008494 C35.5932392,14.4950802 35.8975665,14.472003 36.2018939,14.4279466 L36.2018939,14.4279466 C36.4366455,14.3943798 36.6687416,14.5013739 36.7786818,14.7085439 L36.7786818,14.7085439 L46.8336996,33.6858383 C46.9431088,33.8935328 46.9011509,34.1416123 46.740755,34.312593 L46.740755,34.312593 C46.7391617,34.314691 46.7370372,34.3167889 46.7354439,34.3183623 L46.7354439,34.3183623 C46.6249725,34.436895 46.4736055,34.5035041 46.3190518,34.5035041 L46.3190518,34.5035041 C46.2505383,34.5035041 46.1820249,34.4903921 46.1156358,34.4636436 M18.3788277,45.2831612 C18.3692677,45.2826367 18.3602388,45.2826367 18.3506787,45.2826367 L18.3506787,45.2826367 C17.4908079,45.2821122 16.7254751,44.7502885 16.4344256,43.9520285 L16.4344256,43.9520285 L9.44445677,24.7507808 C9.61175714,24.6086464 9.76790416,24.4565469 9.91608448,24.2971047 L9.91608448,24.2971047 L20.262683,28.3959234 C20.9510045,28.669178 21.4380345,29.2896389 21.5240747,30.018143 L21.5240747,30.018143 C21.5915259,30.5872048 21.7391751,31.1562667 21.9744579,31.711692 L21.9744579,31.711692 C22.2479807,32.3547056 22.6160415,32.9305857 23.0568647,33.4293671 L23.0568647,33.4293671 C23.5492058,33.9863659 23.7037595,34.7578774 23.4472323,35.4528146 L23.4472323,35.4528146 L20.3041097,43.9614692 C20.0093424,44.7576313 19.2440096,45.2831612 18.3867944,45.2831612 L18.3867944,45.2831612 C18.3841388,45.2831612 18.3814832,45.2831612 18.3788277,45.2831612 M25.5966437,48.3692071 C25.2301762,47.9858115 24.8360909,47.6344093 24.4181055,47.3181473 L24.4181055,47.3181473 C23.94754,46.9615002 23.7563396,46.3531023 23.9592245,45.8029218 L23.9592245,45.8029218 L27.4199522,36.4372654 C27.6015926,35.9468757 28.0583491,35.622222 28.5841503,35.5687249 L28.5841503,35.5687249 C29.1912116,35.5068362 29.7988041,35.3578836 30.3909943,35.1124265 L30.3909943,35.1124265 C31.0649758,34.8339271 31.6624771,34.4531539 32.1771249,33.99738 L32.1771249,33.99738 C32.5674925,33.652796 33.1156003,33.543704 33.601037,33.7398598 L33.601037,33.7398598 L44.0697913,37.9834352 C44.5727546,38.1874583 44.8845175,38.6705053 44.9041687,39.2080983 L44.9041687,39.2080983 C44.9041687,39.2133431 44.9046998,39.2196369 44.9046998,39.2254061 L44.9046998,39.2254061 C44.9254132,39.766146 44.6439237,40.2743681 44.1510515,40.510909 L44.1510515,40.510909 L27.1687361,48.6639654 C26.9828468,48.7531272 26.7847419,48.7961346 26.5887614,48.7961346 L26.5887614,48.7961346 C26.2217628,48.7961346 25.8611376,48.6466575 25.5966437,48.3692071" id="path-1"></path>
    </defs>
    <g id="Page-1" stroke="none" stroke-width="1" fill="none" fill-rule="evenodd">
        <g id="Ecommerce_science_desktop" transform="translate(-1126.000000, -1518.000000)">
            <g id="Group-10" transform="translate(932.000000, 1518.000000)">
                <g id="3" transform="translate(194.000000, 0.000000)">
                    <mask id="mask-2" fill="white">
                        <use xlink:href="#path-1"></use>
                    </mask>
                    <g id="Clip-14"></g>
                    <path d="M33.0630202,0.293184854 C29.9607934,1.20315931 28.0041757,3.86752256 27.8066019,6.76895121 L27.8066019,6.76895121 C27.7402129,7.73976545 27.1878561,8.61250176 26.2902763,9.0163521 L26.2902763,9.0163521 L11.0802826,15.8508634 C10.3122943,16.1959719 9.43542786,16.097894 8.71683294,15.6615258 L8.71683294,15.6615258 C6.9992158,14.6188577 4.75367304,14.4877374 2.81298874,15.6054063 L2.81298874,15.6054063 C0.631179462,16.8625872 -0.463974076,19.482894 0.186107365,21.892884 L0.186107365,21.892884 C0.758646412,24.012836 2.40987452,25.4687952 4.33940546,25.9439749 L4.33940546,25.9439749 C5.19555847,26.1548163 5.86635329,26.8146133 6.16536951,27.6349015 L6.16536951,27.6349015 L12.4787013,44.9779133 C12.8425132,45.976525 12.515348,47.0679699 11.7128374,47.7723478 L11.7128374,47.7723478 C8.39444778,50.6805947 7.2844231,55.5755754 9.51775027,59.7614579 L9.51775027,59.7614579 C11.7452352,63.9363263 16.8109842,65.9802286 21.3615543,64.5415774 L21.3615543,64.5415774 C25.9317755,63.0961079 28.6133615,58.8215881 28.2968186,54.4421721 L28.2968186,54.4421721 C28.2198073,53.3821961 28.7599485,52.3730947 29.7276351,51.9078801 L29.7276351,51.9078801 L45.2233672,44.4686423 C46.0630557,44.0653164 47.0748246,44.1083238 47.8327219,44.6474903 L47.8327219,44.6474903 C49.9874444,46.1800236 52.9579554,46.4732085 55.5110122,45.0141025 L55.5110122,45.0141025 C58.3120984,43.4133866 59.6499703,40.0184214 58.6923748,36.9659422 L58.6923748,36.9659422 C57.7554927,33.9774497 55.046289,32.123934 52.1453536,32.043164 L52.1453536,32.043164 C51.1760737,32.0153665 50.283274,31.5192075 49.8334218,30.6711218 L49.8334218,30.6711218 L41.022269,14.0403552 C40.577728,13.2022346 40.6005658,12.1747764 41.1481426,11.3980201 L41.1481426,11.3980201 C42.715455,9.17736775 42.9895089,6.14796576 41.443441,3.54811366 L41.443441,3.54811366 C40.1177848,1.31802064 37.6528926,0 35.1088648,0 L35.1088648,0 C34.4258544,0 33.7370017,0.0949310529 33.0630202,0.293184854 M22.7929019,25.0644204 L12.2412941,20.8848316 C11.7351441,20.6844799 11.7197418,19.9821999 12.2158007,19.75982 L12.2158007,19.75982 L29.3006208,12.0829922 C29.4493322,12.0158587 29.6214126,12.0551948 29.731884,12.173203 L29.731884,12.173203 C30.0563936,12.5198849 30.4127699,12.831951 30.7935774,13.1062546 L30.7935774,13.1062546 C30.9247622,13.2001367 30.9815912,13.3622013 30.9316666,13.5137763 L30.9316666,13.5137763 L27.9361933,22.6386959 C27.8830821,22.8007606 27.7333084,22.9082792 27.561228,22.9171953 L27.561228,22.9171953 C26.8436953,22.9544335 26.1203204,23.1102043 25.4192522,23.4002423 L25.4192522,23.4002423 C24.5285769,23.7689524 23.7696174,24.315986 23.1593694,24.977881 L23.1593694,24.977881 C23.0945737,25.0486859 23.0048157,25.0874975 22.9129333,25.0874975 L22.9129333,25.0874975 C22.8725688,25.0874975 22.8322042,25.0801548 22.7929019,25.0644204 M46.1156358,34.4636436 L34.665386,29.8230361 C34.4550655,29.7370212 34.3281297,29.5319491 34.3302541,29.3074713 L34.3302541,29.3074713 C34.3392831,28.4714486 34.183136,27.621265 33.8352575,26.8020258 L33.8352575,26.8020258 C33.421521,25.8280646 32.7884352,25.0145947 32.0193846,24.3841686 L32.0193846,24.3841686 C31.8441175,24.2404608 31.7681685,24.0123116 31.8382753,23.7977989 L31.8382753,23.7977989 L34.7678907,14.8737554 C34.8411842,14.649802 35.0525669,14.5055698 35.2905052,14.5008494 L35.2905052,14.5008494 C35.5932392,14.4950802 35.8975665,14.472003 36.2018939,14.4279466 L36.2018939,14.4279466 C36.4366455,14.3943798 36.6687416,14.5013739 36.7786818,14.7085439 L36.7786818,14.7085439 L46.8336996,33.6858383 C46.9431088,33.8935328 46.9011509,34.1416123 46.740755,34.312593 L46.740755,34.312593 C46.7391617,34.314691 46.7370372,34.3167889 46.7354439,34.3183623 L46.7354439,34.3183623 C46.6249725,34.436895 46.4736055,34.5035041 46.3190518,34.5035041 L46.3190518,34.5035041 C46.2505383,34.5035041 46.1820249,34.4903921 46.1156358,34.4636436 M18.3788277,45.2831612 C18.3692677,45.2826367 18.3602388,45.2826367 18.3506787,45.2826367 L18.3506787,45.2826367 C17.4908079,45.2821122 16.7254751,44.7502885 16.4344256,43.9520285 L16.4344256,43.9520285 L9.44445677,24.7507808 C9.61175714,24.6086464 9.76790416,24.4565469 9.91608448,24.2971047 L9.91608448,24.2971047 L20.262683,28.3959234 C20.9510045,28.669178 21.4380345,29.2896389 21.5240747,30.018143 L21.5240747,30.018143 C21.5915259,30.5872048 21.7391751,31.1562667 21.9744579,31.711692 L21.9744579,31.711692 C22.2479807,32.3547056 22.6160415,32.9305857 23.0568647,33.4293671 L23.0568647,33.4293671 C23.5492058,33.9863659 23.7037595,34.7578774 23.4472323,35.4528146 L23.4472323,35.4528146 L20.3041097,43.9614692 C20.0093424,44.7576313 19.2440096,45.2831612 18.3867944,45.2831612 L18.3867944,45.2831612 C18.3841388,45.2831612 18.3814832,45.2831612 18.3788277,45.2831612 M25.5966437,48.3692071 C25.2301762,47.9858115 24.8360909,47.6344093 24.4181055,47.3181473 L24.4181055,47.3181473 C23.94754,46.9615002 23.7563396,46.3531023 23.9592245,45.8029218 L23.9592245,45.8029218 L27.4199522,36.4372654 C27.6015926,35.9468757 28.0583491,35.622222 28.5841503,35.5687249 L28.5841503,35.5687249 C29.1912116,35.5068362 29.7988041,35.3578836 30.3909943,35.1124265 L30.3909943,35.1124265 C31.0649758,34.8339271 31.6624771,34.4531539 32.1771249,33.99738 L32.1771249,33.99738 C32.5674925,33.652796 33.1156003,33.543704 33.601037,33.7398598 L33.601037,33.7398598 L44.0697913,37.9834352 C44.5727546,38.1874583 44.8845175,38.6705053 44.9041687,39.2080983 L44.9041687,39.2080983 C44.9041687,39.2133431 44.9046998,39.2196369 44.9046998,39.2254061 L44.9046998,39.2254061 C44.9254132,39.766146 44.6439237,40.2743681 44.1510515,40.510909 L44.1510515,40.510909 L27.1687361,48.6639654 C26.9828468,48.7531272 26.7847419,48.7961346 26.5887614,48.7961346 L26.5887614,48.7961346 C26.2217628,48.7961346 25.8611376,48.6466575 25.5966437,48.3692071" fill="#FFFFFF" mask="url(#mask-2)"></path>
                </g>
            </g>
        </g>
    </g>
</svg>