<?xml version="1.0" encoding="UTF-8"?>
<svg width="62px" height="66px" viewBox="0 0 62 66" version="1.1" xmlns="http://www.w3.org/2000/svg" xmlns:xlink="http://www.w3.org/1999/xlink">
    <title>4</title>
    <defs>
        <path d="M23.0432495,2.10560489 C21.2919594,4.27056481 21.2489552,7.36961711 22.7722098,9.57534615 L22.7722098,9.57534615 C23.2175298,10.2204574 23.3312646,11.0586225 23.1190728,11.824842 L23.1190728,11.824842 L22.0716938,15.593587 C21.8119709,16.5288785 21.0978746,17.2387407 20.2021421,17.4629708 L20.2021421,17.4629708 C18.8186512,17.8095083 17.5228663,18.603307 16.5264133,19.8353736 L16.5264133,19.8353736 C15.9611342,20.5350436 15.5458041,21.3150527 15.2691059,22.1334327 L15.2691059,22.1334327 C15.1400932,22.5159429 14.8005863,22.7737476 14.4175092,22.7971299 L14.4175092,22.7971299 L10.1719746,23.059731 C9.23436957,23.1178869 8.31260816,22.7809422 7.6143555,22.1154463 L7.6143555,22.1154463 C7.45761645,21.9661594 7.28786297,21.8258657 7.10679259,21.6957643 L7.10679259,21.6957643 C5.371912,20.4559035 2.9823488,20.6525546 1.45569915,22.1688059 L1.45569915,22.1688059 C-0.704130995,24.3127817 -0.422340213,27.9987894 2.04700711,29.7452663 L2.04700711,29.7452663 C3.46671208,30.748906 5.34192221,30.7770847 6.82952857,29.890956 L6.82952857,29.890956 C7.29748233,29.6127667 7.67999352,29.275822 7.99120823,28.9011058 L7.99120823,28.9011058 C8.61080845,28.1540718 9.48843395,27.7086092 10.4249073,27.6504533 L10.4249073,27.6504533 L14.666481,27.3878522 C15.0512556,27.3644699 15.4150939,27.5815055 15.5871107,27.947828 L15.5871107,27.947828 C15.9905582,28.8033799 16.5558373,29.589984 17.2846456,30.2518825 L17.2846456,30.2518825 C19.5604739,32.3173179 22.7280739,32.5535389 25.2025138,31.0978417 L25.2025138,31.0978417 C25.8945422,30.6901505 26.7450072,30.7399128 27.4104408,31.1943686 L27.4104408,31.1943686 L30.5033493,33.3065685 C31.0137414,33.6549046 31.3006248,34.2490545 31.3475899,34.8899689 L31.3475899,34.8899689 C31.4449152,36.2149652 32.018682,37.4991923 33.0456906,38.4320856 L33.0456906,38.4320856 C33.1073677,38.4878434 33.1701765,38.5418025 33.2346828,38.593963 L33.2346828,38.593963 C33.7213095,38.9908623 33.9974418,39.6101931 33.9883883,40.2612999 L33.9883883,40.2612999 L33.9431207,43.6019691 C33.9312379,44.5114801 33.3721831,45.3310593 32.5437861,45.5714771 L32.5437861,45.5714771 C30.4631743,46.1770184 28.5443941,47.5098087 27.1637324,49.5566581 L27.1637324,49.5566581 C24.5133147,53.4836832 24.7951055,58.9695274 27.8551949,62.5464177 L27.8551949,62.5464177 C32.04075,67.4375124 39.2524438,67.0496063 42.9711767,61.9144964 L42.9711767,61.9144964 C45.9016877,57.865164 45.5751951,51.9998073 42.2169054,48.3431774 L42.2169054,48.3431774 C41.3630454,47.4144809 40.3948847,46.6986232 39.3650469,46.1836134 L39.3650469,46.1836134 C38.6792428,45.8412727 38.2644785,45.0870441 38.2752295,44.2848518 L38.2752295,44.2848518 L38.3227605,40.7247488 C38.3369066,39.6791409 38.6175657,39.071801 39.109285,38.6964853 L39.109285,38.6964853 C39.4171046,38.4614633 39.7034222,38.1850727 39.9608816,37.8673134 L39.9608816,37.8673134 C40.6664903,36.9937752 41.0490015,35.94457 41.1231271,34.8797767 L41.1231271,34.8797767 C41.167263,34.2484549 41.528838,33.6902778 42.0347033,33.3551317 L42.0347033,33.3551317 L49.9723762,28.0935176 C50.5682109,27.6984169 51.3315357,27.6432587 51.9403849,28.0167758 L51.9403849,28.0167758 C54.6836012,29.6961036 58.2489902,29.1271346 60.3850548,26.4855358 L60.3850548,26.4855358 C62.9641761,23.295952 62.4113456,18.3820746 59.0326854,15.953914 L59.0326854,15.953914 C56.5288215,14.1546771 53.096972,14.3932963 50.8398165,16.5282789 L50.8398165,16.5282789 C49.1864176,18.0930935 48.4593068,20.252058 48.5979388,22.346871 L48.5979388,22.346871 C48.6471673,23.0921065 48.2720121,23.7965728 47.673914,24.1928726 L47.673914,24.1928726 C45.7279733,25.4824956 41.6731284,28.1702595 39.7984841,29.413118 L39.7984841,29.413118 C39.2586681,29.7716464 38.5881418,29.8831619 37.9940046,29.6409454 L37.9940046,29.6409454 C36.8730658,29.1840915 35.6361287,29.1834919 34.5242434,29.6211604 L34.5242434,29.6211604 C33.9391598,29.8513859 33.2810821,29.7326759 32.7565438,29.3741475 L32.7565438,29.3741475 L29.7586973,27.3272981 C29.0926978,26.8716433 28.7005673,26.0700505 28.7639419,25.232485 L28.7639419,25.232485 C28.9037056,23.3924789 28.3955769,21.5182987 27.263887,20.023631 L27.263887,20.023631 C27.1903271,19.9265046 27.0607486,19.7838127 26.9068388,19.6243335 L26.9068388,19.6243335 C26.2255615,18.9204667 25.9624436,17.8760579 26.2312199,16.908391 L26.2312199,16.908391 L27.1410986,13.6318731 C27.3917679,12.727758 28.0877572,12.0706558 28.9427489,11.8110525 L28.9427489,11.8110525 C29.9629673,11.5016868 30.9124552,10.8871524 31.6593705,9.97464366 L31.6593705,9.97464366 C33.6517105,7.53988812 33.4406504,3.73457086 31.1885875,1.5678123 L31.1885875,1.5678123 C30.0942434,0.515009852 28.7260303,0 27.3646074,0 L27.3646074,0 C25.7615686,0 24.1681493,0.714059061 23.0432495,2.10560489" id="path-1"></path>
    </defs>
    <g id="Page-1" stroke="none" stroke-width="1" fill="none" fill-rule="evenodd">
        <g id="Ecommerce_science_desktop" transform="translate(-331.000000, -1897.000000)">
            <g id="4" transform="translate(331.000000, 1897.000000)">
                <mask id="mask-2" fill="white">
                    <use xlink:href="#path-1"></use>
                </mask>
                <g id="Clip-17"></g>
                <path d="M22.9637766,2.35333299 C21.2185264,4.50989905 21.1756705,7.59693586 22.6936716,9.79411296 L22.6936716,9.79411296 C23.1374557,10.4367231 23.2507983,11.2716384 23.0393383,12.0348872 L23.0393383,12.0348872 L21.9955716,15.7890202 C21.7367445,16.7206854 21.025111,17.4277954 20.1324677,17.6511562 L20.1324677,17.6511562 C18.7537483,17.9963501 17.4624323,18.787071 16.469416,20.0143608 L16.469416,20.0143608 C15.9060865,20.711318 15.4921887,21.4883029 15.2164448,22.3035099 L15.2164448,22.3035099 C15.0878771,22.6845371 14.7495411,22.9413423 14.3677852,22.9646339 L14.3677852,22.9646339 L10.1368929,23.2262168 C9.20252151,23.2841473 8.28393912,22.9485089 7.58809464,22.2855933 L7.58809464,22.2855933 C7.43189616,22.1368852 7.26272814,21.9971354 7.08228224,21.8675384 L7.08228224,21.8675384 C5.35338501,20.6324848 2.97206309,20.8283734 1.45067864,22.338746 L1.45067864,22.338746 C-0.701702544,24.4744093 -0.42088362,28.1461258 2.03994727,29.8858314 L2.03994727,29.8858314 C3.45475586,30.8855798 5.32349866,30.9136492 6.80597447,30.0309561 L6.80597447,30.0309561 C7.27231432,29.7538454 7.65350628,29.4182071 7.96364766,29.0449438 L7.96364766,29.0449438 C8.58111096,28.3008061 9.45570965,27.8570707 10.3889533,27.7991402 L10.3889533,27.7991402 L14.6158983,27.5375573 C14.9993459,27.5142656 15.3619293,27.7304597 15.5333529,28.0953619 L15.5333529,28.0953619 C15.935409,28.9475967 16.4987385,29.731151 17.2250332,30.3904833 L17.2250332,30.3904833 C19.4930125,32.4479107 22.6496879,32.6832158 25.1155939,31.2331626 L25.1155939,31.2331626 C25.8052355,30.8270521 26.6527673,30.8766215 27.315906,31.3293152 L27.315906,31.3293152 L30.3981474,33.4333258 C30.9067793,33.7803113 31.1926733,34.3721576 31.2394764,35.0105872 L31.2394764,35.0105872 C31.3364661,36.3304462 31.908254,37.6096942 32.9317206,38.5389705 L32.9317206,38.5389705 C32.9931849,38.5945121 33.0557771,38.648262 33.120061,38.7002203 L33.120061,38.7002203 C33.6050093,39.0955808 33.8801893,39.7125103 33.871167,40.3610927 L33.871167,40.3610927 L33.8260555,43.6888096 C33.8142138,44.5947943 33.2570871,45.4111958 32.4315471,45.6506816 L32.4315471,45.6506816 C30.358111,46.253875 28.4459484,47.581498 27.0700484,49.6204114 L27.0700484,49.6204114 C24.4287717,53.5322108 24.7095906,58.9967856 27.7591262,62.5598077 L27.7591262,62.5598077 C31.9302458,67.431939 39.1170675,67.0455368 42.8229751,61.9303365 L42.8229751,61.9303365 C45.7433791,57.896704 45.4180126,52.0540881 42.0713051,48.4116355 L42.0713051,48.4116355 C41.22039,47.4865398 40.2555683,46.7734576 39.2292823,46.2604445 L39.2292823,46.2604445 C38.5458435,45.9194311 38.1325096,45.1681268 38.1432236,44.3690447 L38.1432236,44.3690447 L38.1905906,40.8227447 C38.2046879,39.7811908 38.4843791,39.1762056 38.9744025,38.8023451 L38.9744025,38.8023451 C39.2811605,38.5682344 39.5664906,38.2929153 39.8230621,37.9763881 L39.8230621,37.9763881 C40.5262372,37.1062367 40.9074291,36.0610994 40.9812992,35.0004344 L40.9812992,35.0004344 C41.0252828,34.3715604 41.3856107,33.8155474 41.8897315,33.4817007 L41.8897315,33.4817007 L49.8000284,28.2404867 C50.3938081,27.8469179 51.1545004,27.7919735 51.7612497,28.1640424 L51.7612497,28.1640424 C54.495005,29.8368592 58.0480974,29.2700962 60.1767951,26.6387392 L60.1767951,26.6387392 C62.7470213,23.461522 62.1960974,18.5666964 58.8290898,16.1479502 L58.8290898,16.1479502 C56.3338614,14.3556891 52.9138478,14.5933832 50.664477,16.7200882 L50.664477,16.7200882 C49.0167804,18.2788357 48.2921774,20.4294296 48.4303312,22.5161207 L48.4303312,22.5161207 C48.47939,23.2584668 48.1055286,23.9602018 47.5094933,24.3549651 L47.5094933,24.3549651 C45.5702638,25.639588 41.5294036,28.316931 39.6612247,29.5549708 L39.6612247,29.5549708 C39.1232703,29.9121091 38.4550566,30.0231922 37.8629685,29.7819148 L37.8629685,29.7819148 C36.7458957,29.3268322 35.5132246,29.326235 34.4051741,29.7622065 L34.4051741,29.7622065 C33.8221083,29.9915395 33.1663002,29.8732897 32.643571,29.5161514 L32.643571,29.5161514 L29.6560637,27.4772379 C28.9923611,27.0233497 28.601583,26.2248649 28.664739,25.3905468 L28.664739,25.3905468 C28.8040207,23.5576746 28.2976444,21.6907609 27.1698576,20.2018883 L27.1698576,20.2018883 C27.0965514,20.1051384 26.9674198,19.9629997 26.8140408,19.8041389 L26.8140408,19.8041389 C26.1351132,19.1030011 25.8729027,18.0626416 26.1407521,17.0987265 L26.1407521,17.0987265 L27.0474927,13.8349122 C27.2972975,12.9343025 27.9908864,12.2797479 28.8429294,12.0211511 L28.8429294,12.0211511 C29.8596292,11.7129849 30.8058424,11.1008331 31.5501817,10.1918623 L31.5501817,10.1918623 C33.5356504,7.7665467 33.3253182,3.97598322 31.0810224,1.8176255 L31.0810224,1.8176255 C29.9904525,0.768904931 28.6269582,0.255891849 27.2702306,0.255891849 L27.2702306,0.255891849 C25.6727206,0.255891849 24.0847967,0.967182397 22.9637766,2.35333299 L110,-175" id="Fill-16" fill="#FFFFFF" mask="url(#mask-2)"></path>
            </g>
        </g>
    </g>
</svg>