<?xml version="1.0" encoding="UTF-8"?>
<svg width="59px" height="69px" viewBox="0 0 59 69" version="1.1" xmlns="http://www.w3.org/2000/svg" xmlns:xlink="http://www.w3.org/1999/xlink">
    <title>5</title>
    <defs>
        <path d="M24.9022428,0 C23.3969276,0.00884218199 21.8821226,0.29945523 20.4384909,0.896007775 L20.4384909,0.896007775 C13.6888901,3.68718989 11.044209,11.5726478 14.4795068,17.7515646 L14.4795068,17.7515646 C14.6936198,18.1376732 14.9278985,18.5055079 15.1781913,18.8568373 L15.1781913,18.8568373 C15.6206519,19.478148 15.6301417,20.3045972 15.1609911,20.9064551 L15.1609911,20.9064551 L8.83190576,29.0141465 C8.44519752,29.5087192 7.81827941,29.7262369 7.19314063,29.6413519 L7.19314063,29.6413519 C5.72281897,29.4421081 4.16886868,29.749816 2.81123807,30.6493607 L2.81123807,30.6493607 C0.360504255,32.2733748 -0.654308317,35.4766026 0.435829327,38.1958683 L0.435829327,38.1958683 C1.56392606,41.0076821 4.3841679,42.4925792 7.13916755,42.1477341 L7.13916755,42.1477341 C7.62907707,42.0864283 8.58754411,41.6985513 9.28148375,41.3814117 L9.28148375,41.3814117 C9.79926947,41.1462097 10.4012769,41.1851153 10.8799173,41.4922337 L10.8799173,41.4922337 L17.3732943,45.6622067 C17.94446,46.0282731 18.2101737,46.7008684 18.0998551,47.3675689 L18.0998551,47.3675689 C17.7688992,49.3712073 18.1734008,51.5110154 19.4456235,53.3631578 L19.4456235,53.3631578 C21.2617287,56.0069702 24.5511212,57.2985182 27.7301951,56.7856717 L27.7301951,56.7856717 C28.8369398,56.6070596 29.7936275,56.2309721 30.6216102,55.7234309 L30.6216102,55.7234309 C31.6192226,55.1121414 32.8653483,55.0832569 33.8801609,55.6662514 L33.8801609,55.6662514 C36.4240131,57.1269799 40.9903731,59.7501606 43.4440725,61.1596044 L43.4440725,61.1596044 C44.3349249,61.671272 44.9802295,62.5572586 45.0804652,63.5741095 L45.0804652,63.5741095 C45.1694318,64.4801384 45.4671734,65.3826305 45.9980076,66.2132061 L45.9980076,66.2132061 C47.6622765,68.8198814 51.1728993,69.7589211 53.9308645,68.3382772 L53.9308645,68.3382772 C56.9841989,66.7667267 58.114075,63.0123362 56.4616683,60.0395947 L56.4616683,60.0395947 C55.9859934,59.1842609 55.3317922,58.4886759 54.5702379,57.9734715 L54.5702379,57.9734715 C53.7475933,57.416414 53.2814082,56.4685321 53.2618355,55.4799761 L53.2618355,55.4799761 L53.0245912,43.3266917 C53.0014599,42.178387 53.5927914,41.0837249 54.6070108,40.5325622 L54.6070108,40.5325622 C55.3994068,40.1028322 56.1514713,39.5257324 56.8311763,38.7700206 L56.8311763,38.7700206 C59.0304311,36.3236836 59.6324386,32.7543895 58.2896358,29.7568898 L58.2896358,29.7568898 C56.3821914,25.4955475 51.4825031,23.6770054 47.3360656,25.3747044 L47.3360656,25.3747044 C47.2370161,25.4153784 47.0531517,25.5067476 46.8443767,25.6163907 L46.8443767,25.6163907 C46.165858,25.9694885 45.3420271,25.8875509 44.7542543,25.400052 L44.7542543,25.400052 L36.6689679,18.6900148 C36.021884,18.1529996 35.8332748,17.2634761 36.1523684,16.4883115 L36.1523684,16.4883115 C37.6126072,12.9396491 37.3581626,8.73725476 34.9732641,5.2328033 L34.9732641,5.2328033 C32.713512,1.91226922 28.9253133,0.0229896732 25.0457756,0 L25.0457756,0 L24.9022428,0 Z M30.8386888,41.8076049 C30.3713174,41.5028443 29.8754768,41.2464211 29.3600635,41.0418719 L29.3600635,41.0418719 C28.6922208,40.7771959 28.2657741,40.1193376 28.2408635,39.4054788 L28.2408635,39.4054788 L27.7515471,25.2184925 C27.7207053,24.3342743 28.2568775,23.5178462 29.094943,23.2207489 L29.094943,23.2207489 C29.6880538,23.0108944 30.2710817,22.7527027 30.839875,22.4402789 L30.839875,22.4402789 C31.0320429,22.3347622 31.2188728,22.2245297 31.4009578,22.1095813 L31.4009578,22.1095813 C32.1725949,21.6250297 33.1636831,21.6710091 33.8635538,22.2516457 L33.8635538,22.2516457 L42.8444375,29.7044262 C42.2679338,30.9788793 42.0111168,32.3847863 42.1155043,33.7924616 L42.1155043,33.7924616 C42.2020985,34.9496085 41.706851,36.0725656 40.727032,36.703308 L40.727032,36.703308 L32.8404377,41.7798994 C32.526089,41.9826801 32.1613258,42.0881996 31.7995282,42.0881996 L31.7995282,42.0881996 C31.4632344,42.0887863 31.129313,41.997417 30.8386888,41.8076049 L30.8386888,41.8076049 Z M19.6638882,41.749836 L13.554847,37.8268545 C12.9985091,37.4702199 12.644422,36.8530356 12.6782293,36.1963562 L12.6782293,36.1963562 C12.7108504,35.5679718 12.4397987,34.559963 12.1847611,33.7747773 L12.1847611,33.7747773 C11.9421788,33.0284971 12.0940151,32.21089 12.5779936,31.5913478 L12.5779936,31.5913478 L18.6591585,23.8002065 C19.1799098,23.1329165 20.0719485,22.9071461 20.8708687,23.1948118 L20.8708687,23.1948118 C21.1608999,23.299739 21.4550828,23.3928767 21.7522314,23.4748142 L21.7522314,23.4748142 C22.574876,23.702353 23.1715455,24.4032433 23.2006079,25.2520928 L23.2006079,25.2520928 C23.3138921,28.5343108 23.5855368,36.3908842 23.6928899,39.523964 L23.6928899,39.523964 C23.7189868,40.2637599 23.3156714,40.9581659 22.6454562,41.2817898 L22.6454562,41.2817898 C22.5203098,41.3425061 22.3963497,41.4067593 22.2735757,41.4733704 L22.2735757,41.4733704 C22.0962356,41.5712239 21.9242335,41.6743827 21.7575694,41.7828468 L21.7575694,41.7828468 C21.4550828,41.9791432 21.1075199,42.0734598 20.7581777,42.0734598 L20.7581777,42.0734598 C20.3779936,42.0734598 19.9948441,41.9620483 19.6638882,41.749836 L19.6638882,41.749836 Z M36.161265,51.7538807 C35.1636527,51.1809073 34.5308035,50.116898 34.5735074,48.9727197 L34.5735074,48.9727197 C34.5865559,48.6361273 34.5782523,48.2989454 34.5491899,47.9611741 L34.5491899,47.9611741 C34.4507335,46.8323222 35.0390994,45.7518075 35.9963802,45.1358022 L35.9963802,45.1358022 L43.0953234,40.565573 C44.067432,39.940136 45.3218613,39.8570195 46.3248117,40.4311719 L46.3248117,40.4311719 C46.4784273,40.5195937 46.6350086,40.6021207 46.7933692,40.6805214 L46.7933692,40.6805214 C47.8259751,41.1892416 48.4528932,42.2626825 48.4760245,43.4074503 L48.4760245,43.4074503 L48.7138619,55.5737033 C48.7340277,56.6094175 48.2245455,57.5673206 47.397156,58.1980629 L47.397156,58.1980629 L47.3888524,58.2039577 L36.161265,51.7538807 Z" id="path-1"></path>
    </defs>
    <g id="Page-1" stroke="none" stroke-width="1" fill="none" fill-rule="evenodd">
        <g id="Ecommerce_science_desktop" transform="translate(-738.000000, -1894.000000)">
            <g id="5" transform="translate(738.000000, 1894.000000)">
                <mask id="mask-2" fill="white">
                    <use xlink:href="#path-1"></use>
                </mask>
                <g id="Clip-2"></g>
                <path d="M24.9022428,0 C23.3969276,0.00884218199 21.8821226,0.29945523 20.4384909,0.896007775 L20.4384909,0.896007775 C13.6888901,3.68718989 11.044209,11.5726478 14.4795068,17.7515646 L14.4795068,17.7515646 C14.6936198,18.1376732 14.9278985,18.5055079 15.1781913,18.8568373 L15.1781913,18.8568373 C15.6206519,19.478148 15.6301417,20.3045972 15.1609911,20.9064551 L15.1609911,20.9064551 L8.83190576,29.0141465 C8.44519752,29.5087192 7.81827941,29.7262369 7.19314063,29.6413519 L7.19314063,29.6413519 C5.72281897,29.4421081 4.16886868,29.749816 2.81123807,30.6493607 L2.81123807,30.6493607 C0.360504255,32.2733748 -0.654308317,35.4766026 0.435829327,38.1958683 L0.435829327,38.1958683 C1.56392606,41.0076821 4.3841679,42.4925792 7.13916755,42.1477341 L7.13916755,42.1477341 C7.62907707,42.0864283 8.58754411,41.6985513 9.28148375,41.3814117 L9.28148375,41.3814117 C9.79926947,41.1462097 10.4012769,41.1851153 10.8799173,41.4922337 L10.8799173,41.4922337 L17.3732943,45.6622067 C17.94446,46.0282731 18.2101737,46.7008684 18.0998551,47.3675689 L18.0998551,47.3675689 C17.7688992,49.3712073 18.1734008,51.5110154 19.4456235,53.3631578 L19.4456235,53.3631578 C21.2617287,56.0069702 24.5511212,57.2985182 27.7301951,56.7856717 L27.7301951,56.7856717 C28.8369398,56.6070596 29.7936275,56.2309721 30.6216102,55.7234309 L30.6216102,55.7234309 C31.6192226,55.1121414 32.8653483,55.0832569 33.8801609,55.6662514 L33.8801609,55.6662514 C36.4240131,57.1269799 40.9903731,59.7501606 43.4440725,61.1596044 L43.4440725,61.1596044 C44.3349249,61.671272 44.9802295,62.5572586 45.0804652,63.5741095 L45.0804652,63.5741095 C45.1694318,64.4801384 45.4671734,65.3826305 45.9980076,66.2132061 L45.9980076,66.2132061 C47.6622765,68.8198814 51.1728993,69.7589211 53.9308645,68.3382772 L53.9308645,68.3382772 C56.9841989,66.7667267 58.114075,63.0123362 56.4616683,60.0395947 L56.4616683,60.0395947 C55.9859934,59.1842609 55.3317922,58.4886759 54.5702379,57.9734715 L54.5702379,57.9734715 C53.7475933,57.416414 53.2814082,56.4685321 53.2618355,55.4799761 L53.2618355,55.4799761 L53.0245912,43.3266917 C53.0014599,42.178387 53.5927914,41.0837249 54.6070108,40.5325622 L54.6070108,40.5325622 C55.3994068,40.1028322 56.1514713,39.5257324 56.8311763,38.7700206 L56.8311763,38.7700206 C59.0304311,36.3236836 59.6324386,32.7543895 58.2896358,29.7568898 L58.2896358,29.7568898 C56.3821914,25.4955475 51.4825031,23.6770054 47.3360656,25.3747044 L47.3360656,25.3747044 C47.2370161,25.4153784 47.0531517,25.5067476 46.8443767,25.6163907 L46.8443767,25.6163907 C46.165858,25.9694885 45.3420271,25.8875509 44.7542543,25.400052 L44.7542543,25.400052 L36.6689679,18.6900148 C36.021884,18.1529996 35.8332748,17.2634761 36.1523684,16.4883115 L36.1523684,16.4883115 C37.6126072,12.9396491 37.3581626,8.73725476 34.9732641,5.2328033 L34.9732641,5.2328033 C32.713512,1.91226922 28.9253133,0.0229896732 25.0457756,0 L25.0457756,0 L24.9022428,0 Z M30.8386888,41.8076049 C30.3713174,41.5028443 29.8754768,41.2464211 29.3600635,41.0418719 L29.3600635,41.0418719 C28.6922208,40.7771959 28.2657741,40.1193376 28.2408635,39.4054788 L28.2408635,39.4054788 L27.7515471,25.2184925 C27.7207053,24.3342743 28.2568775,23.5178462 29.094943,23.2207489 L29.094943,23.2207489 C29.6880538,23.0108944 30.2710817,22.7527027 30.839875,22.4402789 L30.839875,22.4402789 C31.0320429,22.3347622 31.2188728,22.2245297 31.4009578,22.1095813 L31.4009578,22.1095813 C32.1725949,21.6250297 33.1636831,21.6710091 33.8635538,22.2516457 L33.8635538,22.2516457 L42.8444375,29.7044262 C42.2679338,30.9788793 42.0111168,32.3847863 42.1155043,33.7924616 L42.1155043,33.7924616 C42.2020985,34.9496085 41.706851,36.0725656 40.727032,36.703308 L40.727032,36.703308 L32.8404377,41.7798994 C32.526089,41.9826801 32.1613258,42.0881996 31.7995282,42.0881996 L31.7995282,42.0881996 C31.4632344,42.0887863 31.129313,41.997417 30.8386888,41.8076049 L30.8386888,41.8076049 Z M19.6638882,41.749836 L13.554847,37.8268545 C12.9985091,37.4702199 12.644422,36.8530356 12.6782293,36.1963562 L12.6782293,36.1963562 C12.7108504,35.5679718 12.4397987,34.559963 12.1847611,33.7747773 L12.1847611,33.7747773 C11.9421788,33.0284971 12.0940151,32.21089 12.5779936,31.5913478 L12.5779936,31.5913478 L18.6591585,23.8002065 C19.1799098,23.1329165 20.0719485,22.9071461 20.8708687,23.1948118 L20.8708687,23.1948118 C21.1608999,23.299739 21.4550828,23.3928767 21.7522314,23.4748142 L21.7522314,23.4748142 C22.574876,23.702353 23.1715455,24.4032433 23.2006079,25.2520928 L23.2006079,25.2520928 C23.3138921,28.5343108 23.5855368,36.3908842 23.6928899,39.523964 L23.6928899,39.523964 C23.7189868,40.2637599 23.3156714,40.9581659 22.6454562,41.2817898 L22.6454562,41.2817898 C22.5203098,41.3425061 22.3963497,41.4067593 22.2735757,41.4733704 L22.2735757,41.4733704 C22.0962356,41.5712239 21.9242335,41.6743827 21.7575694,41.7828468 L21.7575694,41.7828468 C21.4550828,41.9791432 21.1075199,42.0734598 20.7581777,42.0734598 L20.7581777,42.0734598 C20.3779936,42.0734598 19.9948441,41.9620483 19.6638882,41.749836 L19.6638882,41.749836 Z M36.161265,51.7538807 C35.1636527,51.1809073 34.5308035,50.116898 34.5735074,48.9727197 L34.5735074,48.9727197 C34.5865559,48.6361273 34.5782523,48.2989454 34.5491899,47.9611741 L34.5491899,47.9611741 C34.4507335,46.8323222 35.0390994,45.7518075 35.9963802,45.1358022 L35.9963802,45.1358022 L43.0953234,40.565573 C44.067432,39.940136 45.3218613,39.8570195 46.3248117,40.4311719 L46.3248117,40.4311719 C46.4784273,40.5195937 46.6350086,40.6021207 46.7933692,40.6805214 L46.7933692,40.6805214 C47.8259751,41.1892416 48.4528932,42.2626825 48.4760245,43.4074503 L48.4760245,43.4074503 L48.7138619,55.5737033 C48.7340277,56.6094175 48.2245455,57.5673206 47.397156,58.1980629 L47.397156,58.1980629 L47.3888524,58.2039577 L36.161265,51.7538807 Z" id="Fill-1" fill="#FFFFFF" mask="url(#mask-2)"></path>
            </g>
        </g>
    </g>
</svg>