<?xml version="1.0" encoding="UTF-8"?>
<svg width="60px" height="60px" viewBox="0 0 60 60" version="1.1" xmlns="http://www.w3.org/2000/svg" xmlns:xlink="http://www.w3.org/1999/xlink">
    <title>6</title>
    <defs>
        <path d="M6.17886706,6.46221454 C6.80476661,8.49305583 8.76679468,9.82219477 10.8974816,9.81946441 L10.8974816,9.81946441 L10.929242,9.81946441 C11.3941491,9.81946441 11.8185341,10.0477225 12.069332,10.4272424 L12.069332,10.4272424 L16.2830652,16.7955326 C16.4352963,17.026521 16.4440578,17.3235841 16.3055166,17.5622175 L16.3055166,17.5622175 L12.3622946,24.373918 C12.0819267,24.8577377 11.399625,24.852277 11.1006389,24.3804709 L11.1006389,24.3804709 C10.0361168,22.6996617 8.15951332,21.5818525 6.01842212,21.5818525 L6.01842212,21.5818525 C2.63593609,21.5818525 -0.0954610736,24.3646348 0.00255819118,27.7595636 L0.00255819118,27.7595636 C0.0929111447,30.877634 2.69014786,33.4780283 5.81690765,33.5806898 L5.81690765,33.5806898 C8.04342346,33.6527713 10.0054515,32.5169418 11.1022816,30.7815254 L11.1022816,30.7815254 C11.4007202,30.3108114 12.0824743,30.3080811 12.361747,30.7897165 L12.361747,30.7897165 L15.720139,36.5922762 C16.2359722,37.4834655 16.2261155,38.5805239 15.6905689,39.4607917 L15.6905689,39.4607917 C15.1407849,40.3645407 14.4272703,41.5375031 13.8594157,42.4740163 L13.8594157,42.4740163 C13.3271547,43.3510077 12.3595567,43.8899807 11.3333662,43.8293667 L11.3333662,43.8293667 C10.294581,43.7682067 9.19829849,43.9145539 8.05492293,44.3705239 L8.05492293,44.3705239 C5.0097546,45.5855338 2.85771152,48.4251076 2.77283451,51.694986 L2.77283451,51.694986 C2.64415,56.7041032 7.08075381,60.7166394 12.2303246,59.8920708 L12.2303246,59.8920708 C15.7825646,59.3230639 18.717119,55.8904562 18.9914635,52.3142315 L18.9914635,52.3142315 C19.2154293,49.4036684 17.9707489,47.5153518 17.1915231,46.6192479 L17.1915231,46.6192479 L17.1811188,46.6072343 C16.8492771,46.2260762 16.8027316,45.6739975 17.0666718,45.2436929 L17.0666718,45.2436929 L19.3512325,41.5112916 C19.8643278,40.6725252 20.7788092,40.1608559 21.7639302,40.1608559 L21.7639302,40.1608559 L27.7507716,40.1608559 C28.3591482,40.1608559 28.785176,40.7751867 28.5508059,41.3338182 L28.5508059,41.3338182 C28.1778947,42.2239154 28.0136166,43.2215887 28.1225877,44.2700467 L28.1225877,44.2700467 C28.410622,47.0402693 30.6617795,49.3015529 33.4397221,49.5997082 L33.4397221,49.5997082 C37.0620542,49.9885114 40.1241979,47.1680501 40.1241979,43.634419 L40.1241979,43.634419 C40.1241979,40.8893157 38.2766169,38.5750631 35.7544005,37.8608011 L35.7544005,37.8608011 C35.5988839,37.8171154 35.3732753,37.7799825 35.1301437,37.7494025 L35.1301437,37.7494025 C34.517934,37.6740446 34.1817115,37.0001919 34.4905544,36.4672257 L34.4905544,36.4672257 L38.0668885,30.2900607 C38.2634747,29.9493118 38.6352907,29.7472653 39.0290106,29.7663778 L39.0290106,29.7663778 L45.4615933,30.0732702 C46.178941,30.1071266 46.8289346,30.5063052 47.176109,31.1326496 L47.176109,31.1326496 C48.3260557,33.2066306 50.5246442,34.6215028 53.0610981,34.6569975 L53.0610981,34.6569975 C56.7206665,34.7072361 59.854545,31.751349 59.994729,28.104135 L59.994729,28.104135 C60.1458648,24.2128268 57.0273189,21.0106614 53.1585697,21.0106614 L53.1585697,21.0106614 C50.5082164,21.0106614 48.2143466,22.5145433 47.0780898,24.7113904 L47.0780898,24.7113904 C46.6997025,25.4442189 45.9429281,25.9029193 45.1166093,25.8636021 L45.1166093,25.8636021 L39.0290106,25.5730919 C38.6708843,25.5550715 38.3461613,25.3584856 38.1676458,25.0488629 L38.1676458,25.0488629 L34.7490186,19.1447338 C34.4615319,18.6494466 34.8207533,18.0302011 35.3946315,18.0312932 L35.3946315,18.0312932 L35.4083213,18.0312932 C40.3169509,18.0312932 44.2700295,13.9499521 44.0416829,9.00472518 L44.0416829,9.00472518 C43.8396209,4.61594554 40.2172888,1.00422617 35.8168262,0.802725653 L35.8168262,0.802725653 C30.857818,0.575013682 26.7656506,4.51710653 26.7656506,9.41209479 L26.7656506,9.41209479 C26.7656506,11.0590476 27.2316528,12.5962399 28.0366155,13.904082 L28.0366155,13.904082 C28.3345065,14.3862635 27.9785706,15.0044168 27.4112635,15.0044168 L27.4112635,15.0044168 L20.5236305,15.0038708 C20.2772134,15.0038708 20.0477716,14.8810046 19.9130636,14.6762276 L19.9130636,14.6762276 L15.5290288,8.04964547 C15.2754929,7.66739516 15.2442801,7.18849013 15.41951,6.76528443 L15.41951,6.76528443 C15.7918737,5.86371977 15.904678,4.83000571 15.6516897,3.74823733 L15.6516897,3.74823733 C15.2218287,1.9123437 13.7110178,0.457062157 11.8552229,0.0966547214 L11.8552229,0.0966547214 C11.519548,0.0311260967 11.1877062,0 10.8640784,0 L10.8640784,0 C7.63984694,0 5.14008189,3.08967465 6.17886706,6.46221454 L6.17886706,6.46221454 Z M15.3537988,27.5826364 L20.2120497,19.1927881 L29.9274564,19.1927881 L34.7846121,27.5826364 L29.9274564,35.9724846 L20.2120497,35.9724846 L15.3537988,27.5826364 Z" id="path-1"></path>
    </defs>
    <g id="Page-1" stroke="none" stroke-width="1" fill="none" fill-rule="evenodd">
        <g id="Ecommerce_science_desktop" transform="translate(-1134.000000, -1894.000000)">
            <g id="6" transform="translate(1134.000000, 1894.000000)">
                <mask id="mask-2" fill="white">
                    <use xlink:href="#path-1"></use>
                </mask>
                <use id="Clip-8" fill="#FFFFFF" xlink:href="#path-1"></use>
                <path d="M6.17886706,6.46221454 C6.80476661,8.49305583 8.76679468,9.82219477 10.8974816,9.81946441 L10.8974816,9.81946441 L10.929242,9.81946441 C11.3941491,9.81946441 11.8185341,10.0477225 12.069332,10.4272424 L12.069332,10.4272424 L16.2830652,16.7955326 C16.4352963,17.026521 16.4440578,17.3235841 16.3055166,17.5622175 L16.3055166,17.5622175 L12.3622946,24.373918 C12.0819267,24.8577377 11.399625,24.852277 11.1006389,24.3804709 L11.1006389,24.3804709 C10.0361168,22.6996617 8.15951332,21.5818525 6.01842212,21.5818525 L6.01842212,21.5818525 C2.63593609,21.5818525 -0.0954610736,24.3646348 0.00255819118,27.7595636 L0.00255819118,27.7595636 C0.0929111447,30.877634 2.69014786,33.4780283 5.81690765,33.5806898 L5.81690765,33.5806898 C8.04342346,33.6527713 10.0054515,32.5169418 11.1022816,30.7815254 L11.1022816,30.7815254 C11.4007202,30.3108114 12.0824743,30.3080811 12.361747,30.7897165 L12.361747,30.7897165 L15.720139,36.5922762 C16.2359722,37.4834655 16.2261155,38.5805239 15.6905689,39.4607917 L15.6905689,39.4607917 C15.1407849,40.3645407 14.4272703,41.5375031 13.8594157,42.4740163 L13.8594157,42.4740163 C13.3271547,43.3510077 12.3595567,43.8899807 11.3333662,43.8293667 L11.3333662,43.8293667 C10.294581,43.7682067 9.19829849,43.9145539 8.05492293,44.3705239 L8.05492293,44.3705239 C5.0097546,45.5855338 2.85771152,48.4251076 2.77283451,51.694986 L2.77283451,51.694986 C2.64415,56.7041032 7.08075381,60.7166394 12.2303246,59.8920708 L12.2303246,59.8920708 C15.7825646,59.3230639 18.717119,55.8904562 18.9914635,52.3142315 L18.9914635,52.3142315 C19.2154293,49.4036684 17.9707489,47.5153518 17.1915231,46.6192479 L17.1915231,46.6192479 L17.1811188,46.6072343 C16.8492771,46.2260762 16.8027316,45.6739975 17.0666718,45.2436929 L17.0666718,45.2436929 L19.3512325,41.5112916 C19.8643278,40.6725252 20.7788092,40.1608559 21.7639302,40.1608559 L21.7639302,40.1608559 L27.7507716,40.1608559 C28.3591482,40.1608559 28.785176,40.7751867 28.5508059,41.3338182 L28.5508059,41.3338182 C28.1778947,42.2239154 28.0136166,43.2215887 28.1225877,44.2700467 L28.1225877,44.2700467 C28.410622,47.0402693 30.6617795,49.3015529 33.4397221,49.5997082 L33.4397221,49.5997082 C37.0620542,49.9885114 40.1241979,47.1680501 40.1241979,43.634419 L40.1241979,43.634419 C40.1241979,40.8893157 38.2766169,38.5750631 35.7544005,37.8608011 L35.7544005,37.8608011 C35.5988839,37.8171154 35.3732753,37.7799825 35.1301437,37.7494025 L35.1301437,37.7494025 C34.517934,37.6740446 34.1817115,37.0001919 34.4905544,36.4672257 L34.4905544,36.4672257 L38.0668885,30.2900607 C38.2634747,29.9493118 38.6352907,29.7472653 39.0290106,29.7663778 L39.0290106,29.7663778 L45.4615933,30.0732702 C46.178941,30.1071266 46.8289346,30.5063052 47.176109,31.1326496 L47.176109,31.1326496 C48.3260557,33.2066306 50.5246442,34.6215028 53.0610981,34.6569975 L53.0610981,34.6569975 C56.7206665,34.7072361 59.854545,31.751349 59.994729,28.104135 L59.994729,28.104135 C60.1458648,24.2128268 57.0273189,21.0106614 53.1585697,21.0106614 L53.1585697,21.0106614 C50.5082164,21.0106614 48.2143466,22.5145433 47.0780898,24.7113904 L47.0780898,24.7113904 C46.6997025,25.4442189 45.9429281,25.9029193 45.1166093,25.8636021 L45.1166093,25.8636021 L39.0290106,25.5730919 C38.6708843,25.5550715 38.3461613,25.3584856 38.1676458,25.0488629 L38.1676458,25.0488629 L34.7490186,19.1447338 C34.4615319,18.6494466 34.8207533,18.0302011 35.3946315,18.0312932 L35.3946315,18.0312932 L35.4083213,18.0312932 C40.3169509,18.0312932 44.2700295,13.9499521 44.0416829,9.00472518 L44.0416829,9.00472518 C43.8396209,4.61594554 40.2172888,1.00422617 35.8168262,0.802725653 L35.8168262,0.802725653 C30.857818,0.575013682 26.7656506,4.51710653 26.7656506,9.41209479 L26.7656506,9.41209479 C26.7656506,11.0590476 27.2316528,12.5962399 28.0366155,13.904082 L28.0366155,13.904082 C28.3345065,14.3862635 27.9785706,15.0044168 27.4112635,15.0044168 L27.4112635,15.0044168 L20.5236305,15.0038708 C20.2772134,15.0038708 20.0477716,14.8810046 19.9130636,14.6762276 L19.9130636,14.6762276 L15.5290288,8.04964547 C15.2754929,7.66739516 15.2442801,7.18849013 15.41951,6.76528443 L15.41951,6.76528443 C15.7918737,5.86371977 15.904678,4.83000571 15.6516897,3.74823733 L15.6516897,3.74823733 C15.2218287,1.9123437 13.7110178,0.457062157 11.8552229,0.0966547214 L11.8552229,0.0966547214 C11.519548,0.0311260967 11.1877062,0 10.8640784,0 L10.8640784,0 C7.63984694,0 5.14008189,3.08967465 6.17886706,6.46221454 L6.17886706,6.46221454 Z M15.3537988,27.5826364 L20.2120497,19.1927881 L29.9274564,19.1927881 L34.7846121,27.5826364 L29.9274564,35.9724846 L20.2120497,35.9724846 L15.3537988,27.5826364 Z" id="Fill-7" fill="#FFFFFF" mask="url(#mask-2)"></path>
            </g>
        </g>
    </g>
</svg>