<?xml version="1.0" encoding="UTF-8"?>
<svg width="65px" height="64px" viewBox="0 0 65 64" version="1.1" xmlns="http://www.w3.org/2000/svg" xmlns:xlink="http://www.w3.org/1999/xlink">
    <title>7</title>
    <defs>
        <path d="M0.0703496254,15.3128902 C0.708067733,21.753571 5.88396587,26.9852927 12.3317409,27.7066442 L12.3317409,27.7066442 C15.8887248,28.1048965 19.204859,27.1569021 21.8553934,25.3177221 L21.8553934,25.3177221 C22.9030308,24.590453 24.3119429,24.6632391 25.3257664,25.4366652 L25.3257664,25.4366652 L29.8443699,28.8795061 C30.9364993,29.7121079 31.2337056,30.4896763 31.0308222,31.2204959 L31.0308222,31.2204959 C30.8148879,31.9980644 30.699802,32.8176475 30.699802,33.6644515 L30.699802,33.6644515 C30.699802,35.4438641 31.2093833,37.1049254 32.0909174,38.5103477 L32.0909174,38.5103477 C32.4871924,39.1417522 32.5127011,39.935298 32.1045616,40.5590097 L32.1045616,40.5590097 L27.273921,47.9559694 C26.7014578,48.832953 25.7054311,49.3329875 24.6577937,49.2820964 L24.6577937,49.2820964 C23.6593941,49.2329806 22.604638,49.3957137 21.5077629,49.8626098 L21.5077629,49.8626098 C18.9972298,50.932506 17.1878901,53.2983496 16.9636506,56.0121462 L16.9636506,56.0121462 C16.5827994,60.6325832 20.4808884,64.452965 25.1329679,63.956481 L25.1329679,63.956481 C28.6490193,63.5807155 31.4567586,60.6444183 31.6845574,57.124649 L31.6845574,57.124649 C31.7729481,55.769526 31.4917589,54.4883725 30.9335331,53.3687687 L30.9335331,53.3687687 C30.4720032,52.4444446 30.4814948,51.3591627 31.0468393,50.494606 L31.0468393,50.494606 C32.3329536,48.5252395 34.5516194,45.127372 35.7190885,43.3402666 L35.7190885,43.3402666 C36.1456181,42.6869671 36.9357953,42.3615008 37.6939383,42.5479042 L37.6939383,42.5479042 C38.3915723,42.7201055 39.1194607,42.8130113 39.8710783,42.8130113 L39.8710783,42.8130113 C41.5855018,42.8130113 43.1878057,42.3396058 44.5599377,41.5200227 L44.5599377,41.5200227 C45.2065542,41.134789 46.0311386,41.2146762 46.6297038,41.6709207 L46.6297038,41.6709207 L49.3543915,43.7473952 C50.1659248,44.3657811 50.5343183,45.3741346 50.4127069,46.3860387 L50.4127069,46.3860387 C50.3249094,47.1180418 50.347452,47.8843669 50.5070299,48.6725869 L50.5070299,48.6725869 C51.1222054,51.6952805 53.6357046,54.0776933 56.7009041,54.4741704 L56.7009041,54.4741704 C61.6187488,55.1114924 65.742857,50.8727386 64.8868317,45.9345283 L64.8868317,45.9345283 C64.368352,42.9390555 61.9438367,40.5418487 58.9379599,40.0406308 L58.9379599,40.0406308 C57.4827761,39.7980105 56.0910676,39.9867809 54.8678353,40.4968752 L54.8678353,40.4968752 C53.9299447,40.8874347 52.8484935,40.6986643 52.0417059,40.0826455 L52.0417059,40.0826455 L49.7121068,38.3085587 C48.8044708,37.616795 48.5072645,36.8392266 48.7101479,36.108407 L48.7101479,36.108407 C48.9260822,35.3302468 49.0417613,34.5112554 49.0417613,33.6644515 L49.0417613,33.6644515 C49.0417613,31.5595726 48.327517,29.6221609 47.128607,28.0776757 L47.128607,28.0776757 C46.6546193,27.4652074 46.6451276,26.6118941 47.0692843,25.9633287 L47.0692843,25.9633287 L50.3154178,20.9907965 C50.9727124,19.987177 52.0422991,19.3220424 53.2358701,19.184163 L53.2358701,19.184163 C53.5401952,19.1492494 53.8089266,19.1042759 53.9732502,19.0492425 L53.9732502,19.0492425 C56.4487829,18.2178242 58.1287994,15.6596597 57.5747262,12.8103508 L57.5747262,12.8103508 C57.1630272,10.690678 55.4509766,8.98227616 53.3260405,8.56982169 L53.3260405,8.56982169 C49.838464,7.89403544 46.7863155,10.5403718 46.7863155,13.8979997 L46.7863155,13.8979997 C46.7863155,14.3560195 46.8432652,14.7998371 46.9512323,15.2241267 L46.9512323,15.2241267 C47.2430996,16.3721348 47.1090305,17.5864197 46.4612275,18.5782041 L46.4612275,18.5782041 L43.0531433,23.7963154 C42.6444105,24.4218023 41.9046575,24.719456 41.1643113,24.6111645 L41.1643113,24.6111645 C40.7419343,24.54903 40.3100656,24.5158916 39.8710783,24.5158916 L39.8710783,24.5158916 C38.1554683,24.5158916 36.5525712,24.9892971 35.1810324,25.8082884 L35.1810324,25.8082884 C34.5350091,26.1941139 33.7098315,26.1130432 33.1112663,25.6573905 L33.1112663,25.6573905 L28.063505,21.8109714 C27.0425628,21.0328112 26.6617117,19.6901151 27.0864616,18.4805642 L27.0864616,18.4805642 C27.7318916,16.6425677 28.0024028,14.6294111 27.7995194,12.5292663 L27.7995194,12.5292663 C27.1677336,5.9915374 21.8755631,0.699456514 15.3221939,0.0668685161 L15.3221939,0.0668685161 C14.8547317,0.0218950009 14.3908288,0 13.9334515,0 L13.9334515,0 C5.76947322,0 -0.753641493,7.00107446 0.0703496254,15.3128902" id="path-1"></path>
    </defs>
    <g id="Page-1" stroke="none" stroke-width="1" fill="none" fill-rule="evenodd">
        <g id="Ecommerce_science_desktop" transform="translate(-334.000000, -2292.000000)">
            <g id="7" transform="translate(334.000000, 2292.000000)">
                <mask id="mask-2" fill="white">
                    <use xlink:href="#path-1"></use>
                </mask>
                <g id="Clip-5"></g>
                <path d="M0.0703496254,15.3128902 C0.708067733,21.753571 5.88396587,26.9852927 12.3317409,27.7066442 L12.3317409,27.7066442 C15.8887248,28.1048965 19.204859,27.1569021 21.8553934,25.3177221 L21.8553934,25.3177221 C22.9030308,24.590453 24.3119429,24.6632391 25.3257664,25.4366652 L25.3257664,25.4366652 L29.8443699,28.8795061 C30.9364993,29.7121079 31.2337056,30.4896763 31.0308222,31.2204959 L31.0308222,31.2204959 C30.8148879,31.9980644 30.699802,32.8176475 30.699802,33.6644515 L30.699802,33.6644515 C30.699802,35.4438641 31.2093833,37.1049254 32.0909174,38.5103477 L32.0909174,38.5103477 C32.4871924,39.1417522 32.5127011,39.935298 32.1045616,40.5590097 L32.1045616,40.5590097 L27.273921,47.9559694 C26.7014578,48.832953 25.7054311,49.3329875 24.6577937,49.2820964 L24.6577937,49.2820964 C23.6593941,49.2329806 22.604638,49.3957137 21.5077629,49.8626098 L21.5077629,49.8626098 C18.9972298,50.932506 17.1878901,53.2983496 16.9636506,56.0121462 L16.9636506,56.0121462 C16.5827994,60.6325832 20.4808884,64.452965 25.1329679,63.956481 L25.1329679,63.956481 C28.6490193,63.5807155 31.4567586,60.6444183 31.6845574,57.124649 L31.6845574,57.124649 C31.7729481,55.769526 31.4917589,54.4883725 30.9335331,53.3687687 L30.9335331,53.3687687 C30.4720032,52.4444446 30.4814948,51.3591627 31.0468393,50.494606 L31.0468393,50.494606 C32.3329536,48.5252395 34.5516194,45.127372 35.7190885,43.3402666 L35.7190885,43.3402666 C36.1456181,42.6869671 36.9357953,42.3615008 37.6939383,42.5479042 L37.6939383,42.5479042 C38.3915723,42.7201055 39.1194607,42.8130113 39.8710783,42.8130113 L39.8710783,42.8130113 C41.5855018,42.8130113 43.1878057,42.3396058 44.5599377,41.5200227 L44.5599377,41.5200227 C45.2065542,41.134789 46.0311386,41.2146762 46.6297038,41.6709207 L46.6297038,41.6709207 L49.3543915,43.7473952 C50.1659248,44.3657811 50.5343183,45.3741346 50.4127069,46.3860387 L50.4127069,46.3860387 C50.3249094,47.1180418 50.347452,47.8843669 50.5070299,48.6725869 L50.5070299,48.6725869 C51.1222054,51.6952805 53.6357046,54.0776933 56.7009041,54.4741704 L56.7009041,54.4741704 C61.6187488,55.1114924 65.742857,50.8727386 64.8868317,45.9345283 L64.8868317,45.9345283 C64.368352,42.9390555 61.9438367,40.5418487 58.9379599,40.0406308 L58.9379599,40.0406308 C57.4827761,39.7980105 56.0910676,39.9867809 54.8678353,40.4968752 L54.8678353,40.4968752 C53.9299447,40.8874347 52.8484935,40.6986643 52.0417059,40.0826455 L52.0417059,40.0826455 L49.7121068,38.3085587 C48.8044708,37.616795 48.5072645,36.8392266 48.7101479,36.108407 L48.7101479,36.108407 C48.9260822,35.3302468 49.0417613,34.5112554 49.0417613,33.6644515 L49.0417613,33.6644515 C49.0417613,31.5595726 48.327517,29.6221609 47.128607,28.0776757 L47.128607,28.0776757 C46.6546193,27.4652074 46.6451276,26.6118941 47.0692843,25.9633287 L47.0692843,25.9633287 L50.3154178,20.9907965 C50.9727124,19.987177 52.0422991,19.3220424 53.2358701,19.184163 L53.2358701,19.184163 C53.5401952,19.1492494 53.8089266,19.1042759 53.9732502,19.0492425 L53.9732502,19.0492425 C56.4487829,18.2178242 58.1287994,15.6596597 57.5747262,12.8103508 L57.5747262,12.8103508 C57.1630272,10.690678 55.4509766,8.98227616 53.3260405,8.56982169 L53.3260405,8.56982169 C49.838464,7.89403544 46.7863155,10.5403718 46.7863155,13.8979997 L46.7863155,13.8979997 C46.7863155,14.3560195 46.8432652,14.7998371 46.9512323,15.2241267 L46.9512323,15.2241267 C47.2430996,16.3721348 47.1090305,17.5864197 46.4612275,18.5782041 L46.4612275,18.5782041 L43.0531433,23.7963154 C42.6444105,24.4218023 41.9046575,24.719456 41.1643113,24.6111645 L41.1643113,24.6111645 C40.7419343,24.54903 40.3100656,24.5158916 39.8710783,24.5158916 L39.8710783,24.5158916 C38.1554683,24.5158916 36.5525712,24.9892971 35.1810324,25.8082884 L35.1810324,25.8082884 C34.5350091,26.1941139 33.7098315,26.1130432 33.1112663,25.6573905 L33.1112663,25.6573905 L28.063505,21.8109714 C27.0425628,21.0328112 26.6617117,19.6901151 27.0864616,18.4805642 L27.0864616,18.4805642 C27.7318916,16.6425677 28.0024028,14.6294111 27.7995194,12.5292663 L27.7995194,12.5292663 C27.1677336,5.9915374 21.8755631,0.699456514 15.3221939,0.0668685161 L15.3221939,0.0668685161 C14.8547317,0.0218950009 14.3908288,0 13.9334515,0 L13.9334515,0 C5.76947322,0 -0.753641493,7.00107446 0.0703496254,15.3128902" id="Fill-4" fill="#FFFFFF" mask="url(#mask-2)"></path>
            </g>
        </g>
    </g>
</svg>