<?xml version="1.0" encoding="UTF-8"?>
<svg width="348px" height="29px" class="text-center" viewBox="0 0 348 29" version="1.1" xmlns="http://www.w3.org/2000/svg" xmlns:xlink="http://www.w3.org/1999/xlink">
    <title>Ecommerce_Science_logo</title>
    <g id="Page-1" stroke="none" stroke-width="1" fill="none" fill-rule="evenodd">
        <g id="Ecommerce_science_desktop" transform="translate(-260.000000, -66.000000)" fill="#FFFFFF" fill-rule="nonzero">
            <g id="Ecommerce_Science_logo" transform="translate(260.000000, 66.000000)">
                <path d="M67.1,20 L67.1,18.35 L56.9,18.35 L56.9,12.525 L65.65,12.525 L65.65,10.875 L56.9,10.875 L56.9,5.3 L67.1,5.3 L67.1,3.65 L55.1,3.65 L55.1,20 L67.1,20 Z M75.625,20.325 C78.825,20.325 81.25,18.475 81.975,15.725 L80.275,15.725 C79.6,17.575 77.875,18.775 75.625,18.775 C72.675,18.775 70.675,16.675 70.675,13.825 C70.675,10.975 72.675,8.875 75.625,8.875 C77.875,8.875 79.6,10.075 80.275,11.925 L81.975,11.925 C81.25,9.175 78.825,7.325 75.625,7.325 C71.725,7.325 68.975,10.075 68.975,13.825 C68.975,17.575 71.725,20.325 75.625,20.325 Z M90.125,20.325 C94.025,20.325 96.775,17.575 96.775,13.825 C96.775,10.075 94.025,7.325 90.125,7.325 C86.225,7.325 83.475,10.075 83.475,13.825 C83.475,17.575 86.225,20.325 90.125,20.325 Z M90.125,18.775 C87.175,18.775 85.175,16.675 85.175,13.825 C85.175,10.975 87.175,8.875 90.125,8.875 C93.075,8.875 95.075,10.975 95.075,13.825 C95.075,16.675 93.075,18.775 90.125,18.775 Z M100.4,20 L100.4,12.775 C100.4,10.15 101.85,8.875 103.85,8.875 C105.85,8.875 107.35,10.2 107.35,12.775 L107.35,20 L109.025,20 L109.025,12.775 C109.025,10.2 110.5,8.875 112.5,8.875 C114.5,8.875 115.95,10.15 115.95,12.775 L115.95,20 L117.625,20 L117.625,12.775 C117.625,9.1 115.475,7.325 112.625,7.325 C110.6,7.325 108.95,8.275 108.175,10.1 C107.375,8.275 105.725,7.325 103.725,7.325 C100.875,7.325 98.725,9.1 98.725,12.775 L98.725,20 L100.4,20 Z M121.75,20 L121.75,12.775 C121.75,10.15 123.2,8.875 125.2,8.875 C127.2,8.875 128.7,10.2 128.7,12.775 L128.7,20 L130.375,20 L130.375,12.775 C130.375,10.2 131.85,8.875 133.85,8.875 C135.85,8.875 137.3,10.15 137.3,12.775 L137.3,20 L138.975,20 L138.975,12.775 C138.975,9.1 136.825,7.325 133.975,7.325 C131.95,7.325 130.3,8.275 129.525,10.1 C128.725,8.275 127.075,7.325 125.075,7.325 C122.225,7.325 120.075,9.1 120.075,12.775 L120.075,20 L121.75,20 Z M147.575,20.325 C150.45,20.325 152.7,18.825 153.65,16.55 L151.825,16.55 C151.025,17.975 149.525,18.775 147.575,18.775 C144.8,18.775 142.875,16.95 142.65,14.375 L154.175,14.375 L154.175,13.825 C154.175,10.075 151.475,7.325 147.575,7.325 C143.675,7.325 140.925,10.075 140.925,13.825 C140.925,17.575 143.675,20.325 147.575,20.325 Z M152.425,12.875 L142.7,12.875 C143.075,10.45 145,8.875 147.575,8.875 C150.075,8.875 152.025,10.375 152.425,12.875 Z M157.8,20 L157.8,12.6 C157.8,10.025 159.2,8.875 161.325,8.875 C163.425,8.875 164.85,10.025 164.85,12.6 L164.85,12.775 L166.5,12.775 L166.5,12.625 C166.5,9.05 164.4,7.325 161.325,7.325 C158.25,7.325 156.125,9.05 156.125,12.6 L156.125,20 L157.8,20 Z M174.3,20.325 C177.5,20.325 179.925,18.475 180.65,15.725 L178.95,15.725 C178.275,17.575 176.55,18.775 174.3,18.775 C171.35,18.775 169.35,16.675 169.35,13.825 C169.35,10.975 171.35,8.875 174.3,8.875 C176.55,8.875 178.275,10.075 178.95,11.925 L180.65,11.925 C179.925,9.175 177.5,7.325 174.3,7.325 C170.4,7.325 167.65,10.075 167.65,13.825 C167.65,17.575 170.4,20.325 174.3,20.325 Z M188.8,20.325 C191.675,20.325 193.925,18.825 194.875,16.55 L193.05,16.55 C192.25,17.975 190.75,18.775 188.8,18.775 C186.025,18.775 184.1,16.95 183.875,14.375 L195.4,14.375 L195.4,13.825 C195.4,10.075 192.7,7.325 188.8,7.325 C184.9,7.325 182.15,10.075 182.15,13.825 C182.15,17.575 184.9,20.325 188.8,20.325 Z M193.65,12.875 L183.925,12.875 C184.3,10.45 186.225,8.875 188.8,8.875 C191.3,8.875 193.25,10.375 193.65,12.875 Z M209.6,20.325 C213.2,20.325 215.55,18.4 215.55,15.35 C215.55,11.85 212.675,11.375 210.025,10.95 C207.8,10.6 205.75,10.25 205.75,8.15 C205.75,6.225 207.25,4.975 209.625,4.975 C211.975,4.975 213.4,6.175 213.5,8.05 L215.225,8.05 C215.125,5.2 212.925,3.325 209.625,3.325 C206.25,3.325 204,5.3 204,8.2 C204,11.675 206.85,12.175 209.5,12.55 C211.725,12.875 213.8,13.25 213.8,15.4 C213.8,17.4 212.2,18.675 209.6,18.675 C207,18.675 205.475,17.475 205.4,15.4 L203.625,15.4 C203.7,18.45 206.05,20.325 209.6,20.325 Z M223.85,20.325 C227.05,20.325 229.475,18.475 230.2,15.725 L228.5,15.725 C227.825,17.575 226.1,18.775 223.85,18.775 C220.9,18.775 218.9,16.675 218.9,13.825 C218.9,10.975 220.9,8.875 223.85,8.875 C226.1,8.875 227.825,10.075 228.5,11.925 L230.2,11.925 C229.475,9.175 227.05,7.325 223.85,7.325 C219.95,7.325 217.2,10.075 217.2,13.825 C217.2,17.575 219.95,20.325 223.85,20.325 Z M233.5,5.25 C234.225,5.25 234.775,4.7 234.775,3.975 C234.775,3.25 234.225,2.7 233.5,2.7 C232.775,2.7 232.225,3.25 232.225,3.975 C232.225,4.7 232.775,5.25 233.5,5.25 Z M234.35,20 L234.35,7.65 L232.675,7.65 L232.675,20 L234.35,20 Z M243.4,20.325 C246.275,20.325 248.525,18.825 249.475,16.55 L247.65,16.55 C246.85,17.975 245.35,18.775 243.4,18.775 C240.625,18.775 238.7,16.95 238.475,14.375 L250,14.375 L250,13.825 C250,10.075 247.3,7.325 243.4,7.325 C239.5,7.325 236.75,10.075 236.75,13.825 C236.75,17.575 239.5,20.325 243.4,20.325 Z M248.25,12.875 L238.525,12.875 C238.9,10.45 240.825,8.875 243.4,8.875 C245.9,8.875 247.85,10.375 248.25,12.875 Z M253.625,20 L253.625,13.55 C253.625,10.5 255.375,8.875 258.05,8.875 C260.725,8.875 262.475,10.5 262.475,13.55 L262.475,20 L264.15,20 L264.15,13.55 C264.15,9.45 261.7,7.325 258.05,7.325 C254.4,7.325 251.95,9.45 251.95,13.55 L251.95,20 L253.625,20 Z M272.75,20.325 C275.95,20.325 278.375,18.475 279.1,15.725 L277.4,15.725 C276.725,17.575 275,18.775 272.75,18.775 C269.8,18.775 267.8,16.675 267.8,13.825 C267.8,10.975 269.8,8.875 272.75,8.875 C275,8.875 276.725,10.075 277.4,11.925 L279.1,11.925 C278.375,9.175 275.95,7.325 272.75,7.325 C268.85,7.325 266.1,10.075 266.1,13.825 C266.1,17.575 268.85,20.325 272.75,20.325 Z M287.25,20.325 C290.125,20.325 292.375,18.825 293.325,16.55 L291.5,16.55 C290.7,17.975 289.2,18.775 287.25,18.775 C284.475,18.775 282.55,16.95 282.325,14.375 L293.85,14.375 L293.85,13.825 C293.85,10.075 291.15,7.325 287.25,7.325 C283.35,7.325 280.6,10.075 280.6,13.825 C280.6,17.575 283.35,20.325 287.25,20.325 Z M292.1,12.875 L282.375,12.875 C282.75,10.45 284.675,8.875 287.25,8.875 C289.75,8.875 291.7,10.375 292.1,12.875 Z" id="EcommerceScience"></path>
                <g id="Group" transform="translate(20.000000, 0.000000)">
                    <g id="education">
                        <path d="M21.2997688,12.8237812 C21.0774471,12.5487188 20.8350648,12.2738906 20.5776872,12 C20.8350648,11.7261094 21.0774471,11.4512813 21.2997688,11.1762188 C22.9503557,9.1336875 23.4189213,7.29534375 22.6185532,6 C22.4972367,5.80359375 22.3469326,5.62275 22.1717032,5.45953125 C22.3399615,5.15489062 22.4367539,4.81026562 22.4367539,4.44445312 C22.4367539,3.2191875 21.3700812,2.22225 20.0592208,2.22225 C18.7530746,2.22225 17.6900128,3.21220312 17.6823897,4.43146875 C17.1575541,4.47239062 16.6090469,4.54659375 16.0418833,4.6528125 C15.0076587,1.80609375 13.3727191,0 11.5000111,0 C9.627905,0 7.99341677,1.80501562 6.9590918,4.65023438 C3.8068681,4.06546875 1.31729644,4.485 0.381218296,6 C-0.418899071,7.29534375 0.0496665903,9.1336875 1.70025345,11.1762188 C1.92257515,11.4512812 2.1650076,11.7261094 2.4223852,12 C2.1650076,12.2738437 1.92257515,12.5487188 1.70025345,12.8237812 C0.0496665903,14.8663125 -0.418899071,16.7046562 0.381218296,17.9997656 C0.469083761,18.1421719 0.572696804,18.2769375 0.689449545,18.4022813 C0.608906202,18.6252187 0.563268318,18.8630625 0.563268318,19.111125 C0.563268318,20.3363906 1.62994102,21.3333281 2.94080148,21.3333281 C4.0821498,21.3333281 5.03758642,20.577375 5.26587615,19.5732188 C5.80565697,19.5332344 6.37206825,19.4564531 6.95788817,19.3465312 C7.99221314,22.193625 9.62720288,24 11.5000111,24 C13.3723179,24 15.0069565,22.1946094 16.0412815,19.3489688 C16.9457642,19.5167344 17.7974373,19.6043906 18.5716264,19.6043906 C20.4947867,19.6043906 21.951538,19.0800938 22.618804,18 C23.4188712,16.7046562 22.9503557,14.8663125 21.2997688,12.8237812 Z M20.0592208,3.11109375 C20.8458474,3.11109375 21.4857306,3.70917187 21.4857306,4.44440625 C21.4857306,5.17964062 20.8458474,5.77771875 20.0592208,5.77771875 C19.2725942,5.77771875 18.6327109,5.17964062 18.6327109,4.44440625 C18.6326608,3.70921875 19.2725942,3.11109375 20.0592208,3.11109375 Z M15.9762851,8.32303125 C15.4536561,7.99757812 14.911769,7.68257812 14.353081,7.38107812 C13.7886256,7.07648437 13.2251232,6.79523437 12.6655826,6.53620312 C13.5966456,6.18834375 14.5116601,5.90789062 15.3891613,5.70046875 C15.6320451,6.5068125 15.8306953,7.38801562 15.9762851,8.32303125 Z M11.5000111,0.888890625 C12.9248158,0.888890625 14.2272508,2.44420313 15.1073097,4.8523125 C13.9493111,5.12939062 12.7336884,5.52646875 11.5056281,6.02910937 C10.2559525,5.51535937 9.04002887,5.12170312 7.89396631,4.8489375 C8.77407535,2.44275 10.0759085,0.888890625 11.5000111,0.888890625 Z M7.610209,5.703 C8.47788047,5.90948437 9.39314573,6.19092187 10.3312299,6.54023437 C9.76767729,6.80039062 9.20472646,7.08009375 8.6469914,7.38107812 C8.0883536,7.68257812 7.54651657,7.99753125 7.02383742,8.32303125 C7.16922668,7.389 7.36762609,6.50873437 7.610209,5.703 Z M1.20500718,6.44446875 C1.69443588,5.65195312 2.83493162,5.27325 4.3673615,5.27325 C5.063264,5.27325 5.84196667,5.35420312 6.67503359,5.5070625 C6.35546809,6.56957812 6.11373776,7.75021875 5.9650385,9.0163125 C4.88477474,9.75834375 3.90872584,10.5430312 3.07109513,11.3449219 C2.85373844,11.1104531 2.64922053,10.8754219 2.45929672,10.6404375 C1.0738108,8.92621875 0.616679688,7.39692187 1.20500718,6.44446875 Z M5.85450455,13.7891719 C5.06692506,13.2098438 4.34775225,12.6095156 3.71504066,12 C4.34775225,11.3904375 5.06692506,10.7901562 5.85450455,10.210875 C5.81473439,10.7934375 5.79387136,11.390625 5.79387136,12 C5.79387136,12.609375 5.81473439,13.2065625 5.85450455,13.7891719 Z M2.94080148,20.4444375 C2.15417487,20.4444375 1.51429161,19.8463594 1.51429161,19.111125 C1.51429161,18.3758906 2.15417487,17.7778125 2.94080148,17.7778125 C3.72742809,17.7778125 4.36731134,18.3758906 4.36731134,19.111125 C4.3673615,19.8463594 3.72747824,20.4444375 2.94080148,20.4444375 Z M5.27269675,18.6801562 C5.05729597,17.6605312 4.09398555,16.888875 2.94080148,16.888875 C2.26495958,16.888875 1.65556845,17.1551719 1.22225931,17.5797656 C1.21689309,17.5714687 1.21017279,17.563875 1.20500718,17.5555312 C0.616679688,16.6030312 1.0738108,15.0737344 2.45924657,13.3595625 C2.64917038,13.1245781 2.85368829,12.8895469 3.07104498,12.6550781 C3.90862553,13.4569219 4.88472459,14.2417031 5.96498835,14.9836875 C6.11373776,16.2503437 6.3556687,17.4315 6.67548495,18.4944375 C6.19082065,18.5822344 5.72235529,18.6439219 5.27269675,18.6801562 Z M7.02383742,15.6769688 C7.54646642,16.0024219 8.0883536,16.3174219 8.6469914,16.6189219 C9.21169752,16.9236094 9.77504956,17.2029375 10.3348408,17.4620625 C9.40432952,17.8095469 8.48851259,18.0915469 7.61086097,18.2992031 C7.36797715,17.4929531 7.16932698,16.6118438 7.02383742,15.6769688 Z M11.5000111,23.1111094 C10.0752566,23.1111094 8.77292187,21.5557969 7.89281282,19.147875 C9.05126281,18.870375 10.2681895,18.4720781 11.4954473,17.9701406 C12.744471,18.4835625 13.9604448,18.8787187 15.1060058,19.1514375 C14.2258466,21.5573906 12.9241137,23.1111094 11.5000111,23.1111094 Z M15.3901142,18.2962969 C14.5215901,18.089625 13.606375,17.81025 12.6673881,17.4604687 C13.2319438,17.2000781 13.7954964,16.9198125 14.353081,16.6189219 C14.911769,16.3174219 15.453606,16.0024219 15.9762851,15.6769688 C15.8308959,16.6107188 15.6325968,17.4907969 15.3901142,18.2962969 Z M16.1280938,14.4995156 C15.4185501,14.9706094 14.6662773,15.423375 13.8775443,15.8489531 C13.0917201,16.2729844 12.2954143,16.6558125 11.5024686,16.9946719 C10.7135851,16.6584844 9.91592518,16.2771094 9.12242782,15.8489531 C8.333745,15.423375 7.58142203,14.9706094 6.87187831,14.4995156 C6.78897784,13.693125 6.7448445,12.8560781 6.7448445,12 C6.7448445,11.1439219 6.78897784,10.306875 6.87187831,9.50048437 C7.58142203,9.0294375 8.333745,8.57657812 9.12242782,8.15104687 C9.90880367,7.72673437 10.7044074,7.34353125 11.4956981,7.005 C12.2852335,7.34142187 13.083395,7.72251562 13.8775443,8.15104687 C14.6662773,8.576625 15.4185501,9.02948437 16.1280938,9.50048437 C16.2109943,10.306875 16.2550774,11.1439219 16.2550774,12 C16.2550774,12.8560781 16.2109943,13.693125 16.1280938,14.4995156 Z M17.8692042,5.30929688 C18.2308468,6.10617188 19.0764014,6.66665625 20.0592208,6.66665625 C20.6326031,6.66665625 21.1591941,6.47596875 21.5703363,6.15885938 C21.6562458,6.24792188 21.732426,6.34298438 21.7950151,6.44446875 C22.3833426,7.39692188 21.9262115,8.92621875 20.5407757,10.6404375 C20.350902,10.8754219 20.1464343,11.1104531 19.9289773,11.3449219 C19.0913967,10.5430312 18.1153478,9.75829687 17.0350841,9.0163125 C16.8863346,7.74975 16.6444539,6.5686875 16.3247379,5.50589063 C16.8600552,5.4091875 17.3765658,5.34309375 17.8692042,5.30929688 Z M17.145618,10.210875 C17.9331975,10.7901562 18.6523703,11.3904375 19.2850819,12 C18.6523703,12.6095156 17.9331975,13.2098438 17.145618,13.7891719 C17.1853882,13.2065625 17.2061509,12.609375 17.2061509,12 C17.2061509,11.390625 17.1853882,10.7934375 17.145618,10.210875 Z M21.7950151,17.5555312 C21.0830139,18.7081406 18.9927988,18.9838125 16.3247881,18.4937812 C16.644504,17.4310781 16.8863346,16.2500625 17.0350841,14.9836875 C18.1152977,14.2417031 19.0913466,13.4569219 19.9289773,12.6550781 C20.1464343,12.8895469 20.350902,13.1245781 20.5407757,13.3595625 C21.9262115,15.0737812 22.3833426,16.6030781 21.7950151,17.5555312 Z" id="Shape"></path>
                        <path d="M12.3846154,10.2857143 C11.4091071,10.2857143 10.6153846,11.054787 10.6153846,12 C10.6153846,12.945213 11.4091444,13.7142857 12.3846154,13.7142857 C13.3600864,13.7142857 14.1538462,12.9451769 14.1538462,12 C14.1538462,11.0548231 13.3601237,10.2857143 12.3846154,10.2857143 Z M12.3846154,13.0286004 C11.7992507,13.0286004 11.3230844,12.5672218 11.3230844,12.0000362 C11.3230844,11.4328505 11.7992507,10.971472 12.3846154,10.971472 C12.9699801,10.971472 13.4461464,11.4328505 13.4461464,12.0000362 C13.4461837,12.5672218 12.9699801,13.0286004 12.3846154,13.0286004 Z" id="Shape"></path>
                    </g>
                </g>
            </g>
        </g>
    </g>
</svg>